<svg width="562" height="222" viewBox="0 0 562 222" fill="none" xmlns="http://www.w3.org/2000/svg">
<rect x="0.5" y="0.5" width="177" height="200" stroke="#D9D9D9"/>
<path d="M71.0543 32.9869H67.3214C67.2532 32.5039 67.114 32.0749 66.9038 31.6999C66.6935 31.3193 66.4237 30.9954 66.0941 30.7284C65.7646 30.4613 65.3839 30.2568 64.9521 30.1147C64.5259 29.9727 64.0629 29.9017 63.5629 29.9017C62.6594 29.9017 61.8725 30.1261 61.2021 30.5749C60.5316 31.0181 60.0117 31.6659 59.6424 32.5181C59.2731 33.3647 59.0884 34.3931 59.0884 35.6034C59.0884 36.8477 59.2731 37.8931 59.6424 38.7397C60.0174 39.5863 60.5401 40.2255 61.2106 40.6573C61.881 41.0892 62.6566 41.3051 63.5373 41.3051C64.0316 41.3051 64.489 41.2397 64.9094 41.109C65.3356 40.9784 65.7134 40.788 66.043 40.538C66.3725 40.2823 66.6452 39.9727 66.8612 39.609C67.0827 39.2454 67.2362 38.8306 67.3214 38.3647L71.0543 38.3818C70.9577 39.1829 70.7163 39.9556 70.3299 40.6999C69.9492 41.4386 69.435 42.1005 68.7873 42.6857C68.1452 43.2653 67.3782 43.7255 66.4862 44.0664C65.5998 44.4017 64.5969 44.5693 63.4776 44.5693C61.9208 44.5693 60.5288 44.217 59.3015 43.5124C58.0799 42.8079 57.114 41.788 56.4038 40.4528C55.6992 39.1176 55.3469 37.5011 55.3469 35.6034C55.3469 33.6999 55.7049 32.0806 56.4208 30.7454C57.1367 29.4102 58.1083 28.3931 59.3356 27.6943C60.5629 26.9897 61.9435 26.6374 63.4776 26.6374C64.489 26.6374 65.4265 26.7795 66.2901 27.0636C67.1594 27.3477 67.9293 27.7624 68.5998 28.3079C69.2702 28.8477 69.8157 29.5096 70.2362 30.2937C70.6623 31.0778 70.935 31.9755 71.0543 32.9869ZM77.2631 26.8761V44.3306H73.6325V26.8761H77.2631ZM80.1715 44.3306V31.2397H83.8022V44.3306H80.1715ZM81.9954 29.5522C81.4556 29.5522 80.9925 29.3732 80.6062 29.0153C80.2255 28.6516 80.0352 28.217 80.0352 27.7113C80.0352 27.2113 80.2255 26.7823 80.6062 26.4244C80.9925 26.0607 81.4556 25.8789 81.9954 25.8789C82.5352 25.8789 82.9954 26.0607 83.3761 26.4244C83.7624 26.7823 83.9556 27.2113 83.9556 27.7113C83.9556 28.217 83.7624 28.6516 83.3761 29.0153C82.9954 29.3732 82.5352 29.5522 81.9954 29.5522ZM92.6765 44.5863C91.3299 44.5863 90.1708 44.3136 89.1992 43.7681C88.2333 43.217 87.489 42.4386 86.9663 41.4329C86.4435 40.4215 86.1822 39.2255 86.1822 37.8448C86.1822 36.4982 86.4435 35.3164 86.9663 34.2994C87.489 33.2823 88.2248 32.4897 89.1737 31.9215C90.1282 31.3534 91.2475 31.0693 92.5316 31.0693C93.3952 31.0693 94.1992 31.2085 94.9435 31.4869C95.6935 31.7596 96.3469 32.1715 96.9038 32.7227C97.4663 33.2738 97.9038 33.967 98.2163 34.8022C98.5288 35.6318 98.685 36.6034 98.685 37.717V38.7142H87.631V36.4641H95.2674C95.2674 35.9414 95.1538 35.4784 94.9265 35.0749C94.6992 34.6715 94.3839 34.3562 93.9805 34.1289C93.5827 33.896 93.1197 33.7795 92.5913 33.7795C92.0401 33.7795 91.5515 33.9073 91.1254 34.163C90.7049 34.413 90.3754 34.7511 90.1367 35.1772C89.8981 35.5977 89.7759 36.0664 89.7702 36.5835V38.7227C89.7702 39.3704 89.8896 39.9301 90.1282 40.4017C90.3725 40.8732 90.7163 41.2369 91.1594 41.4926C91.6026 41.7482 92.1282 41.8761 92.7362 41.8761C93.1396 41.8761 93.5089 41.8193 93.8441 41.7056C94.1793 41.592 94.4663 41.4215 94.7049 41.1943C94.9435 40.967 95.1254 40.6886 95.2504 40.359L98.6083 40.5806C98.4379 41.3874 98.0884 42.092 97.56 42.6943C97.0373 43.2909 96.3612 43.7568 95.5316 44.092C94.7077 44.4215 93.756 44.5863 92.6765 44.5863ZM104.685 36.7624V44.3306H101.054V31.2397H104.515V33.5494H104.668C104.958 32.788 105.444 32.1857 106.125 31.7426C106.807 31.2937 107.634 31.0693 108.605 31.0693C109.515 31.0693 110.307 31.2681 110.983 31.6659C111.659 32.0636 112.185 32.6318 112.56 33.3704C112.935 34.1034 113.123 34.9784 113.123 35.9954V44.3306H109.492V36.6431C109.498 35.842 109.293 35.217 108.878 34.7681C108.463 34.3136 107.892 34.0863 107.165 34.0863C106.676 34.0863 106.245 34.1914 105.87 34.4016C105.5 34.6119 105.211 34.9187 105 35.3221C104.796 35.7198 104.691 36.1999 104.685 36.7624ZM122.947 31.2397V33.967H115.064V31.2397H122.947ZM116.853 28.1034H120.484V40.3079C120.484 40.6431 120.535 40.9045 120.637 41.092C120.74 41.2738 120.882 41.4017 121.064 41.4755C121.251 41.5494 121.467 41.5863 121.711 41.5863C121.882 41.5863 122.052 41.5721 122.223 41.5437C122.393 41.5096 122.524 41.484 122.615 41.467L123.186 44.1687C123.004 44.2255 122.748 44.2909 122.419 44.3647C122.089 44.4443 121.689 44.4926 121.217 44.5096C120.342 44.5437 119.575 44.4272 118.916 44.1602C118.262 43.8931 117.754 43.4784 117.39 42.9159C117.027 42.3534 116.848 41.6431 116.853 40.7852V28.1034Z" fill="#D9D9D9"/>
<rect x="14" y="65" width="150.944" height="67" fill="#D9D9D9"/>
<path d="M63.6846 99.0682C63.6846 100.972 63.3238 102.591 62.6022 103.926C61.8863 105.261 60.9091 106.281 59.6704 106.986C58.4375 107.685 57.0511 108.034 55.5113 108.034C53.9602 108.034 52.5682 107.682 51.3352 106.977C50.1022 106.273 49.1278 105.253 48.4119 103.918C47.696 102.582 47.338 100.966 47.338 99.0682C47.338 97.1648 47.696 95.5454 48.4119 94.2102C49.1278 92.875 50.1022 91.8579 51.3352 91.1591C52.5682 90.4545 53.9602 90.1023 55.5113 90.1023C57.0511 90.1023 58.4375 90.4545 59.6704 91.1591C60.9091 91.8579 61.8863 92.875 62.6022 94.2102C63.3238 95.5454 63.6846 97.1648 63.6846 99.0682ZM59.9432 99.0682C59.9432 97.8352 59.7585 96.7954 59.3892 95.9488C59.0255 95.1023 58.5113 94.4602 57.8466 94.0227C57.1818 93.5852 56.4034 93.3665 55.5113 93.3665C54.6193 93.3665 53.8409 93.5852 53.1761 94.0227C52.5113 94.4602 51.9943 95.1023 51.625 95.9488C51.2613 96.7954 51.0795 97.8352 51.0795 99.0682C51.0795 100.301 51.2613 101.341 51.625 102.187C51.9943 103.034 52.5113 103.676 53.1761 104.114C53.8409 104.551 54.6193 104.77 55.5113 104.77C56.4034 104.77 57.1818 104.551 57.8466 104.114C58.5113 103.676 59.0255 103.034 59.3892 102.187C59.7585 101.341 59.9432 100.301 59.9432 99.0682ZM69.9808 90.3409V107.795H66.3501V90.3409H69.9808ZM77.713 108.009C76.7187 108.009 75.8182 107.753 75.0113 107.241C74.2102 106.724 73.5738 105.966 73.1022 104.966C72.6363 103.96 72.4034 102.727 72.4034 101.267C72.4034 99.767 72.6449 98.5199 73.1278 97.5256C73.6108 96.5256 74.2528 95.7784 75.0539 95.2841C75.8608 94.7841 76.7443 94.5341 77.7045 94.5341C78.4375 94.5341 79.0483 94.6591 79.5369 94.9091C80.0312 95.1534 80.4289 95.4602 80.7301 95.8295C81.0369 96.1932 81.2699 96.5511 81.4289 96.9034H81.5397V90.3409H85.1619V107.795H81.5824V105.699H81.4289C81.2585 106.062 81.017 106.423 80.7045 106.781C80.3977 107.134 79.9971 107.426 79.5028 107.659C79.0142 107.892 78.4176 108.009 77.713 108.009ZM78.8636 105.119C79.4488 105.119 79.9432 104.96 80.3466 104.642C80.7557 104.318 81.0682 103.866 81.2841 103.287C81.5057 102.707 81.6164 102.028 81.6164 101.25C81.6164 100.472 81.5085 99.7954 81.2926 99.2216C81.0767 98.6477 80.7642 98.2045 80.3551 97.892C79.946 97.5795 79.4488 97.4233 78.8636 97.4233C78.267 97.4233 77.7642 97.5852 77.3551 97.9091C76.946 98.2329 76.6363 98.6818 76.4261 99.2557C76.2159 99.8295 76.1108 100.494 76.1108 101.25C76.1108 102.011 76.2159 102.685 76.4261 103.27C76.642 103.849 76.9517 104.304 77.3551 104.634C77.7642 104.957 78.267 105.119 78.8636 105.119ZM93.7699 107.795V90.3409H97.4005V96.9034H97.5113C97.6704 96.5511 97.9005 96.1932 98.2017 95.8295C98.5085 95.4602 98.9062 95.1534 99.3949 94.9091C99.8892 94.6591 100.503 94.5341 101.236 94.5341C102.19 94.5341 103.071 94.7841 103.878 95.2841C104.685 95.7784 105.33 96.5256 105.812 97.5256C106.295 98.5199 106.537 99.767 106.537 101.267C106.537 102.727 106.301 103.96 105.83 104.966C105.364 105.966 104.727 106.724 103.92 107.241C103.119 107.753 102.222 108.009 101.227 108.009C100.523 108.009 99.9233 107.892 99.4289 107.659C98.9403 107.426 98.5397 107.134 98.2272 106.781C97.9147 106.423 97.6761 106.062 97.5113 105.699H97.3494V107.795H93.7699ZM97.3238 101.25C97.3238 102.028 97.4318 102.707 97.6477 103.287C97.8636 103.866 98.1761 104.318 98.5852 104.642C98.9943 104.96 99.4914 105.119 100.077 105.119C100.668 105.119 101.168 104.957 101.577 104.634C101.986 104.304 102.295 103.849 102.506 103.27C102.722 102.685 102.83 102.011 102.83 101.25C102.83 100.494 102.724 99.8295 102.514 99.2557C102.304 98.6818 101.994 98.2329 101.585 97.9091C101.176 97.5852 100.673 97.4233 100.077 97.4233C99.4858 97.4233 98.9858 97.5795 98.5767 97.892C98.1733 98.2045 97.8636 98.6477 97.6477 99.2216C97.4318 99.7954 97.3238 100.472 97.3238 101.25ZM115.923 94.7045V97.4318H108.039V94.7045H115.923ZM109.829 91.5682H113.459V103.773C113.459 104.108 113.511 104.369 113.613 104.557C113.715 104.739 113.857 104.866 114.039 104.94C114.227 105.014 114.442 105.051 114.687 105.051C114.857 105.051 115.028 105.037 115.198 105.009C115.369 104.974 115.499 104.949 115.59 104.932L116.161 107.634C115.979 107.69 115.724 107.756 115.394 107.83C115.065 107.909 114.664 107.957 114.192 107.974C113.317 108.009 112.55 107.892 111.891 107.625C111.238 107.358 110.729 106.943 110.366 106.381C110.002 105.818 109.823 105.108 109.829 104.25V91.5682ZM121.918 100.227V107.795H118.288V94.7045H121.748V97.0142H121.901C122.191 96.2528 122.677 95.6506 123.359 95.2074C124.04 94.7585 124.867 94.5341 125.839 94.5341C126.748 94.5341 127.54 94.7329 128.217 95.1307C128.893 95.5284 129.418 96.0966 129.793 96.8352C130.168 97.5682 130.356 98.4432 130.356 99.4602V107.795H126.725V100.108C126.731 99.3068 126.526 98.6818 126.111 98.2329C125.697 97.7784 125.126 97.5511 124.398 97.5511C123.91 97.5511 123.478 97.6562 123.103 97.8665C122.734 98.0767 122.444 98.3835 122.234 98.7869C122.029 99.1846 121.924 99.6648 121.918 100.227Z" fill="black"/>
<rect x="222" y="155" width="150.944" height="67" fill="#D9D9D9"/>
<path d="M264.373 180.341V197.795H261.186L253.592 186.81H253.464V197.795H249.774V180.341H253.012L260.546 191.318H260.7V180.341H264.373ZM273.32 198.051C271.973 198.051 270.814 197.778 269.843 197.233C268.877 196.682 268.132 195.903 267.61 194.898C267.087 193.886 266.826 192.69 266.826 191.31C266.826 189.963 267.087 188.781 267.61 187.764C268.132 186.747 268.868 185.955 269.817 185.386C270.772 184.818 271.891 184.534 273.175 184.534C274.039 184.534 274.843 184.673 275.587 184.952C276.337 185.224 276.99 185.636 277.547 186.187C278.11 186.739 278.547 187.432 278.86 188.267C279.172 189.097 279.328 190.068 279.328 191.182V192.179H268.274V189.929H275.911C275.911 189.406 275.797 188.943 275.57 188.54C275.343 188.136 275.027 187.821 274.624 187.594C274.226 187.361 273.763 187.244 273.235 187.244C272.684 187.244 272.195 187.372 271.769 187.628C271.348 187.878 271.019 188.216 270.78 188.642C270.542 189.062 270.419 189.531 270.414 190.048V192.187C270.414 192.835 270.533 193.395 270.772 193.866C271.016 194.338 271.36 194.702 271.803 194.957C272.246 195.213 272.772 195.341 273.38 195.341C273.783 195.341 274.152 195.284 274.488 195.17C274.823 195.057 275.11 194.886 275.348 194.659C275.587 194.432 275.769 194.153 275.894 193.824L279.252 194.045C279.081 194.852 278.732 195.557 278.203 196.159C277.681 196.756 277.005 197.222 276.175 197.557C275.351 197.886 274.399 198.051 273.32 198.051ZM284.186 197.795L280.624 184.705H284.297L286.326 193.5H286.445L288.559 184.705H292.164L294.311 193.449H294.422L296.417 184.705H300.081L296.527 197.795H292.684L290.434 189.562H290.272L288.022 197.795H284.186ZM307.641 197.795V180.341H311.272V186.903H311.382C311.542 186.551 311.772 186.193 312.073 185.83C312.38 185.46 312.777 185.153 313.266 184.909C313.76 184.659 314.374 184.534 315.107 184.534C316.061 184.534 316.942 184.784 317.749 185.284C318.556 185.778 319.201 186.526 319.684 187.526C320.167 188.52 320.408 189.767 320.408 191.267C320.408 192.727 320.172 193.96 319.701 194.966C319.235 195.966 318.598 196.724 317.792 197.241C316.99 197.753 316.093 198.009 315.098 198.009C314.394 198.009 313.794 197.892 313.3 197.659C312.811 197.426 312.411 197.134 312.098 196.781C311.786 196.423 311.547 196.062 311.382 195.699H311.22V197.795H307.641ZM311.195 191.25C311.195 192.028 311.303 192.707 311.519 193.287C311.735 193.866 312.047 194.318 312.456 194.642C312.865 194.96 313.363 195.119 313.948 195.119C314.539 195.119 315.039 194.957 315.448 194.634C315.857 194.304 316.167 193.849 316.377 193.27C316.593 192.685 316.701 192.011 316.701 191.25C316.701 190.494 316.595 189.83 316.385 189.256C316.175 188.682 315.865 188.233 315.456 187.909C315.047 187.585 314.544 187.423 313.948 187.423C313.357 187.423 312.857 187.58 312.448 187.892C312.044 188.205 311.735 188.648 311.519 189.222C311.303 189.795 311.195 190.472 311.195 191.25ZM329.794 184.705V187.432H321.91V184.705H329.794ZM323.7 181.568H327.331V193.773C327.331 194.108 327.382 194.369 327.484 194.557C327.586 194.739 327.728 194.866 327.91 194.94C328.098 195.014 328.314 195.051 328.558 195.051C328.728 195.051 328.899 195.037 329.069 195.009C329.24 194.974 329.37 194.949 329.461 194.932L330.032 197.634C329.85 197.69 329.595 197.756 329.265 197.83C328.936 197.909 328.535 197.957 328.064 197.974C327.189 198.009 326.421 197.892 325.762 197.625C325.109 197.358 324.6 196.943 324.237 196.381C323.873 195.818 323.694 195.108 323.7 194.25V181.568ZM335.789 190.227V197.795H332.159V184.705H335.619V187.014H335.772C336.062 186.253 336.548 185.651 337.23 185.207C337.912 184.759 338.738 184.534 339.71 184.534C340.619 184.534 341.412 184.733 342.088 185.131C342.764 185.528 343.289 186.097 343.664 186.835C344.039 187.568 344.227 188.443 344.227 189.46V197.795H340.596V190.108C340.602 189.307 340.397 188.682 339.983 188.233C339.568 187.778 338.997 187.551 338.269 187.551C337.781 187.551 337.349 187.656 336.974 187.866C336.605 188.077 336.315 188.384 336.105 188.787C335.9 189.185 335.795 189.665 335.789 190.227Z" fill="black"/>
<rect x="418" y="56" width="144" height="114" fill="#D9D9D9"/>
<path d="M462.439 108.565C462.371 107.878 462.078 107.344 461.561 106.963C461.044 106.582 460.342 106.392 459.456 106.392C458.854 106.392 458.345 106.477 457.93 106.648C457.516 106.812 457.197 107.043 456.976 107.338C456.76 107.634 456.652 107.969 456.652 108.344C456.641 108.656 456.706 108.929 456.848 109.162C456.996 109.395 457.197 109.597 457.453 109.767C457.709 109.932 458.004 110.077 458.339 110.202C458.675 110.321 459.033 110.423 459.413 110.509L460.982 110.884C461.743 111.054 462.442 111.281 463.078 111.565C463.714 111.849 464.266 112.199 464.732 112.614C465.197 113.028 465.558 113.517 465.814 114.08C466.075 114.642 466.209 115.287 466.214 116.014C466.209 117.082 465.936 118.009 465.396 118.793C464.862 119.571 464.089 120.176 463.078 120.608C462.072 121.034 460.859 121.247 459.439 121.247C458.03 121.247 456.803 121.031 455.757 120.599C454.717 120.168 453.905 119.528 453.32 118.682C452.74 117.83 452.436 116.776 452.408 115.52H455.979C456.018 116.105 456.186 116.594 456.482 116.986C456.783 117.372 457.183 117.665 457.683 117.864C458.189 118.057 458.76 118.153 459.396 118.153C460.021 118.153 460.564 118.062 461.024 117.881C461.49 117.699 461.851 117.446 462.107 117.122C462.362 116.798 462.49 116.426 462.49 116.006C462.49 115.614 462.374 115.284 462.141 115.017C461.913 114.75 461.578 114.523 461.135 114.335C460.697 114.148 460.161 113.977 459.524 113.824L457.624 113.347C456.152 112.989 454.99 112.429 454.138 111.668C453.286 110.906 452.862 109.881 452.868 108.591C452.862 107.534 453.143 106.611 453.712 105.821C454.286 105.031 455.072 104.415 456.072 103.972C457.072 103.528 458.209 103.307 459.482 103.307C460.777 103.307 461.908 103.528 462.874 103.972C463.845 104.415 464.601 105.031 465.141 105.821C465.68 106.611 465.959 107.526 465.976 108.565H462.439ZM474.594 121.256C473.248 121.256 472.089 120.983 471.117 120.438C470.151 119.886 469.407 119.108 468.884 118.102C468.362 117.091 468.1 115.895 468.1 114.514C468.1 113.168 468.362 111.986 468.884 110.969C469.407 109.952 470.143 109.159 471.092 108.591C472.046 108.023 473.165 107.739 474.45 107.739C475.313 107.739 476.117 107.878 476.862 108.156C477.612 108.429 478.265 108.841 478.822 109.392C479.384 109.943 479.822 110.636 480.134 111.472C480.447 112.301 480.603 113.273 480.603 114.386V115.384H469.549V113.134H477.185C477.185 112.611 477.072 112.148 476.844 111.744C476.617 111.341 476.302 111.026 475.898 110.798C475.501 110.565 475.038 110.449 474.509 110.449C473.958 110.449 473.469 110.577 473.043 110.832C472.623 111.082 472.293 111.42 472.055 111.847C471.816 112.267 471.694 112.736 471.688 113.253V115.392C471.688 116.04 471.808 116.599 472.046 117.071C472.29 117.543 472.634 117.906 473.077 118.162C473.521 118.418 474.046 118.545 474.654 118.545C475.058 118.545 475.427 118.489 475.762 118.375C476.097 118.261 476.384 118.091 476.623 117.864C476.862 117.636 477.043 117.358 477.168 117.028L480.526 117.25C480.356 118.057 480.006 118.761 479.478 119.364C478.955 119.96 478.279 120.426 477.45 120.761C476.626 121.091 475.674 121.256 474.594 121.256ZM482.972 121V107.909H486.492V110.193H486.629C486.867 109.381 487.268 108.767 487.83 108.352C488.393 107.932 489.04 107.722 489.773 107.722C489.955 107.722 490.151 107.733 490.362 107.756C490.572 107.778 490.756 107.81 490.915 107.849V111.071C490.745 111.02 490.509 110.974 490.208 110.935C489.907 110.895 489.631 110.875 489.381 110.875C488.847 110.875 488.37 110.991 487.95 111.224C487.535 111.452 487.205 111.77 486.961 112.179C486.722 112.588 486.603 113.06 486.603 113.594V121H482.972ZM505.396 107.909L500.819 121H496.728L492.151 107.909H495.987L498.705 117.276H498.842L501.552 107.909H505.396ZM512.798 121.256C511.451 121.256 510.292 120.983 509.32 120.438C508.354 119.886 507.61 119.108 507.087 118.102C506.565 117.091 506.303 115.895 506.303 114.514C506.303 113.168 506.565 111.986 507.087 110.969C507.61 109.952 508.346 109.159 509.295 108.591C510.249 108.023 511.369 107.739 512.653 107.739C513.516 107.739 514.32 107.878 515.065 108.156C515.815 108.429 516.468 108.841 517.025 109.392C517.587 109.943 518.025 110.636 518.337 111.472C518.65 112.301 518.806 113.273 518.806 114.386V115.384H507.752V113.134H515.388C515.388 112.611 515.275 112.148 515.048 111.744C514.82 111.341 514.505 111.026 514.102 110.798C513.704 110.565 513.241 110.449 512.712 110.449C512.161 110.449 511.673 110.577 511.246 110.832C510.826 111.082 510.496 111.42 510.258 111.847C510.019 112.267 509.897 112.736 509.891 113.253V115.392C509.891 116.04 510.011 116.599 510.249 117.071C510.494 117.543 510.837 117.906 511.281 118.162C511.724 118.418 512.249 118.545 512.857 118.545C513.261 118.545 513.63 118.489 513.965 118.375C514.3 118.261 514.587 118.091 514.826 117.864C515.065 117.636 515.246 117.358 515.371 117.028L518.729 117.25C518.559 118.057 518.21 118.761 517.681 119.364C517.158 119.96 516.482 120.426 515.653 120.761C514.829 121.091 513.877 121.256 512.798 121.256ZM521.175 121V107.909H524.695V110.193H524.832C525.07 109.381 525.471 108.767 526.033 108.352C526.596 107.932 527.244 107.722 527.977 107.722C528.158 107.722 528.354 107.733 528.565 107.756C528.775 107.778 528.96 107.81 529.119 107.849V111.071C528.948 111.02 528.712 110.974 528.411 110.935C528.11 110.895 527.835 110.875 527.585 110.875C527.05 110.875 526.573 110.991 526.153 111.224C525.738 111.452 525.408 111.77 525.164 112.179C524.925 112.588 524.806 113.06 524.806 113.594V121H521.175Z" fill="black"/>
<path d="M408.707 89.7071C409.098 89.3166 409.098 88.6834 408.707 88.2929L402.343 81.9289C401.953 81.5384 401.319 81.5384 400.929 81.9289C400.538 82.3195 400.538 82.9526 400.929 83.3431L406.586 89L400.929 94.6569C400.538 95.0474 400.538 95.6805 400.929 96.0711C401.319 96.4616 401.953 96.4616 402.343 96.0711L408.707 89.7071ZM185 90H186.991V88H185V90ZM190.973 90H194.955V88H190.973V90ZM198.938 90H202.92V88H198.938V90ZM206.902 90H210.884V88H206.902V90ZM214.866 90H218.848V88H214.866V90ZM222.83 90H226.813V88H222.83V90ZM230.795 90H234.777V88H230.795V90ZM238.759 90H242.741V88H238.759V90ZM246.723 90H250.705V88H246.723V90ZM254.688 90H258.67V88H254.688V90ZM262.652 90H266.634V88H262.652V90ZM270.616 90H274.598V88H270.616V90ZM278.58 90H282.563V88H278.58V90ZM286.545 90H290.527V88H286.545V90ZM294.509 90H298.491V88H294.509V90ZM302.473 90H306.455V88H302.473V90ZM310.438 90H314.42V88H310.438V90ZM318.402 90H322.384V88H318.402V90ZM326.366 90H330.348V88H326.366V90ZM334.33 90H338.313V88H334.33V90ZM342.295 90H346.277V88H342.295V90ZM350.259 90H354.241V88H350.259V90ZM358.223 90H362.205V88H358.223V90ZM366.188 90H370.17V88H366.188V90ZM374.152 90H378.134V88H374.152V90ZM382.116 90H386.098V88H382.116V90ZM390.081 90H394.063V88H390.081V90ZM398.045 90H402.027V88H398.045V90ZM406.009 90H408V88H406.009V90ZM408.707 89.7071C409.098 89.3166 409.098 88.6834 408.707 88.2929L402.343 81.9289C401.953 81.5384 401.319 81.5384 400.929 81.9289C400.538 82.3195 400.538 82.9526 400.929 83.3431L406.586 89L400.929 94.6569C400.538 95.0474 400.538 95.6805 400.929 96.0711C401.319 96.4616 401.953 96.4616 402.343 96.0711L408.707 89.7071ZM185 90H186.991V88H185V90ZM190.973 90H194.955V88H190.973V90ZM198.938 90H202.92V88H198.938V90ZM206.902 90H210.884V88H206.902V90ZM214.866 90H218.848V88H214.866V90ZM222.83 90H226.813V88H222.83V90ZM230.795 90H234.777V88H230.795V90ZM238.759 90H242.741V88H238.759V90ZM246.723 90H250.705V88H246.723V90ZM254.688 90H258.67V88H254.688V90ZM262.652 90H266.634V88H262.652V90ZM270.616 90H274.598V88H270.616V90ZM278.58 90H282.563V88H278.58V90ZM286.545 90H290.527V88H286.545V90ZM294.509 90H298.491V88H294.509V90ZM302.473 90H306.455V88H302.473V90ZM310.438 90H314.42V88H310.438V90ZM318.402 90H322.384V88H318.402V90ZM326.366 90H330.348V88H326.366V90ZM334.33 90H338.313V88H334.33V90ZM342.295 90H346.277V88H342.295V90ZM350.259 90H354.241V88H350.259V90ZM358.223 90H362.205V88H358.223V90ZM366.188 90H370.17V88H366.188V90ZM374.152 90H378.134V88H374.152V90ZM382.116 90H386.098V88H382.116V90ZM390.081 90H394.063V88H390.081V90ZM398.045 90H402.027V88H398.045V90ZM406.009 90H408V88H406.009V90Z" fill="white"/>
<path d="M187.293 142.293C186.902 142.683 186.902 143.317 187.293 143.707L193.657 150.071C194.047 150.462 194.681 150.462 195.071 150.071C195.462 149.681 195.462 149.047 195.071 148.657L189.414 143L195.071 137.343C195.462 136.953 195.462 136.319 195.071 135.929C194.681 135.538 194.047 135.538 193.657 135.929L187.293 142.293ZM408 142H406.036V144H408V142ZM402.107 142H398.179V144H402.107V142ZM394.25 142H390.321V144H394.25V142ZM386.393 142H382.464V144H386.393V142ZM378.536 142H374.607V144H378.536V142ZM370.679 142H366.75V144H370.679V142ZM362.821 142H358.893V144H362.821V142ZM354.964 142H351.036V144H354.964V142ZM347.107 142H343.179V144H347.107V142ZM339.25 142H335.321V144H339.25V142ZM331.393 142H327.464V144H331.393V142ZM323.536 142H319.607V144H323.536V142ZM315.679 142H311.75V144H315.679V142ZM307.821 142H303.893V144H307.821V142ZM299.964 142H296.036V144H299.964V142ZM292.107 142H288.179V144L292.107 144V142ZM284.25 142H280.321V144H284.25V142ZM276.393 142H272.464V144H276.393V142ZM268.536 142H264.607V144H268.536V142ZM260.679 142H256.75V144H260.679V142ZM252.821 142H248.893V144H252.821V142ZM244.964 142H241.036V144H244.964V142ZM237.107 142H233.179V144H237.107V142ZM229.25 142H225.321V144H229.25V142ZM221.393 142H217.464V144H221.393V142ZM213.536 142H209.607V144H213.536V142ZM205.679 142H201.75V144H205.679V142ZM197.821 142H193.893V144H197.821V142ZM189.964 142H188V144H189.964V142ZM187.293 142.293C186.902 142.683 186.902 143.317 187.293 143.707L193.657 150.071C194.047 150.462 194.681 150.462 195.071 150.071C195.462 149.681 195.462 149.047 195.071 148.657L189.414 143L195.071 137.343C195.462 136.953 195.462 136.319 195.071 135.929C194.681 135.538 194.047 135.538 193.657 135.929L187.293 142.293ZM408 142H406.036V144H408V142ZM402.107 142H398.179V144H402.107V142ZM394.25 142H390.321V144H394.25V142ZM386.393 142H382.464V144H386.393V142ZM378.536 142H374.607V144H378.536V142ZM370.679 142H366.75V144H370.679V142ZM362.821 142H358.893V144H362.821V142ZM354.964 142H351.036V144H354.964V142ZM347.107 142H343.179V144H347.107V142ZM339.25 142H335.321V144H339.25V142ZM331.393 142H327.464V144H331.393V142ZM323.536 142H319.607V144H323.536V142ZM315.679 142H311.75V144H315.679V142ZM307.821 142H303.893V144H307.821V142ZM299.964 142H296.036V144H299.964V142ZM292.107 142H288.179V144L292.107 144V142ZM284.25 142H280.321V144H284.25V142ZM276.393 142H272.464V144H276.393V142ZM268.536 142H264.607V144H268.536V142ZM260.679 142H256.75V144H260.679V142ZM252.821 142H248.893V144H252.821V142ZM244.964 142H241.036V144H244.964V142ZM237.107 142H233.179V144H237.107V142ZM229.25 142H225.321V144H229.25V142ZM221.393 142H217.464V144H221.393V142ZM213.536 142H209.607V144H213.536V142ZM205.679 142H201.75V144H205.679V142ZM197.821 142H193.893V144H197.821V142ZM189.964 142H188V144H189.964V142Z" fill="white"/>
<path d="M249.638 74.75V80H248.298V68.3636H249.638V72.6364H249.752C249.957 72.1856 250.263 71.8277 250.673 71.5625C251.085 71.2936 251.635 71.1591 252.32 71.1591C252.915 71.1591 253.436 71.2784 253.883 71.517C254.33 71.7519 254.676 72.1136 254.923 72.6023C255.173 73.0871 255.298 73.7045 255.298 74.4545V80H253.957V74.5455C253.957 73.8523 253.777 73.3163 253.417 72.9375C253.061 72.5549 252.567 72.3636 251.934 72.3636C251.495 72.3636 251.101 72.4564 250.752 72.642C250.407 72.8277 250.135 73.0985 249.934 73.4545C249.737 73.8106 249.638 74.2424 249.638 74.75ZM261.546 71.2727V72.4091H257.023V71.2727H261.546ZM258.342 69.1818H259.683V77.5C259.683 77.8788 259.737 78.1629 259.847 78.3523C259.961 78.5379 260.105 78.6629 260.279 78.7273C260.457 78.7879 260.645 78.8182 260.842 78.8182C260.989 78.8182 261.111 78.8106 261.205 78.7955C261.3 78.7765 261.376 78.7614 261.433 78.75L261.705 79.9545C261.614 79.9886 261.487 80.0227 261.325 80.0568C261.162 80.0947 260.955 80.1136 260.705 80.1136C260.326 80.1136 259.955 80.0322 259.592 79.8693C259.232 79.7064 258.933 79.4583 258.694 79.125C258.459 78.7917 258.342 78.3712 258.342 77.8636V69.1818ZM267.359 71.2727V72.4091H262.836V71.2727H267.359ZM264.154 69.1818H265.495V77.5C265.495 77.8788 265.55 78.1629 265.66 78.3523C265.773 78.5379 265.917 78.6629 266.092 78.7273C266.27 78.7879 266.457 78.8182 266.654 78.8182C266.802 78.8182 266.923 78.8106 267.018 78.7955C267.112 78.7765 267.188 78.7614 267.245 78.75L267.518 79.9545C267.427 79.9886 267.3 80.0227 267.137 80.0568C266.974 80.0947 266.768 80.1136 266.518 80.1136C266.139 80.1136 265.768 80.0322 265.404 79.8693C265.044 79.7064 264.745 79.4583 264.506 79.125C264.272 78.7917 264.154 78.3712 264.154 77.8636V69.1818ZM269.376 83.2727V71.2727H270.671V72.6591H270.83C270.929 72.5076 271.065 72.3144 271.239 72.0795C271.417 71.8409 271.671 71.6288 272.001 71.4432C272.334 71.2538 272.785 71.1591 273.353 71.1591C274.088 71.1591 274.736 71.3428 275.296 71.7102C275.857 72.0777 276.294 72.5985 276.609 73.2727C276.923 73.947 277.08 74.7424 277.08 75.6591C277.08 76.5833 276.923 77.3845 276.609 78.0625C276.294 78.7367 275.859 79.2595 275.302 79.6307C274.745 79.9981 274.103 80.1818 273.376 80.1818C272.815 80.1818 272.366 80.089 272.029 79.9034C271.692 79.714 271.433 79.5 271.251 79.2614C271.069 79.0189 270.929 78.8182 270.83 78.6591H270.717V83.2727H269.376ZM270.694 75.6364C270.694 76.2955 270.79 76.8769 270.984 77.3807C271.177 77.8807 271.459 78.2727 271.83 78.5568C272.201 78.8371 272.656 78.9773 273.194 78.9773C273.754 78.9773 274.222 78.8295 274.597 78.5341C274.976 78.2348 275.26 77.8333 275.45 77.3295C275.643 76.822 275.739 76.2576 275.739 75.6364C275.739 75.0227 275.645 74.4697 275.455 73.9773C275.27 73.4811 274.987 73.089 274.609 72.8011C274.234 72.5095 273.762 72.3636 273.194 72.3636C272.648 72.3636 272.19 72.5019 271.819 72.7784C271.448 73.0511 271.167 73.4337 270.978 73.9261C270.789 74.4148 270.694 74.9848 270.694 75.6364ZM283.626 80V71.2727H284.921V72.5909H285.012C285.171 72.1591 285.459 71.8087 285.876 71.5398C286.292 71.2708 286.762 71.1364 287.285 71.1364C287.383 71.1364 287.506 71.1383 287.654 71.142C287.802 71.1458 287.914 71.1515 287.989 71.1591V72.5227C287.944 72.5114 287.84 72.4943 287.677 72.4716C287.518 72.4451 287.349 72.4318 287.171 72.4318C286.747 72.4318 286.368 72.5208 286.035 72.6989C285.705 72.8731 285.444 73.1155 285.251 73.4261C285.061 73.733 284.967 74.0833 284.967 74.4773V80H283.626ZM292.972 80.1818C292.131 80.1818 291.406 79.9962 290.796 79.625C290.19 79.25 289.722 78.7273 289.393 78.0568C289.067 77.3826 288.904 76.5985 288.904 75.7045C288.904 74.8106 289.067 74.0227 289.393 73.3409C289.722 72.6553 290.181 72.1212 290.768 71.7386C291.359 71.3523 292.048 71.1591 292.836 71.1591C293.29 71.1591 293.739 71.2348 294.183 71.3864C294.626 71.5379 295.029 71.7841 295.393 72.125C295.756 72.4621 296.046 72.9091 296.262 73.4659C296.478 74.0227 296.586 74.7083 296.586 75.5227V76.0909H289.859V74.9318H295.222C295.222 74.4394 295.124 74 294.927 73.6136C294.734 73.2273 294.457 72.9223 294.097 72.6989C293.741 72.4754 293.321 72.3636 292.836 72.3636C292.302 72.3636 291.84 72.4962 291.45 72.7614C291.063 73.0227 290.766 73.3636 290.558 73.7841C290.349 74.2045 290.245 74.6553 290.245 75.1364V75.9091C290.245 76.5682 290.359 77.1269 290.586 77.5852C290.817 78.0398 291.137 78.3864 291.546 78.625C291.955 78.8598 292.431 78.9773 292.972 78.9773C293.325 78.9773 293.643 78.928 293.927 78.8295C294.215 78.7273 294.463 78.5758 294.671 78.375C294.879 78.1705 295.04 77.9167 295.154 77.6136L296.45 77.9773C296.313 78.4167 296.084 78.803 295.762 79.1364C295.44 79.4659 295.042 79.7235 294.569 79.9091C294.095 80.0909 293.563 80.1818 292.972 80.1818ZM304.58 83.2727V78.6591H304.467C304.368 78.8182 304.228 79.0189 304.046 79.2614C303.864 79.5 303.605 79.714 303.268 79.9034C302.931 80.089 302.482 80.1818 301.921 80.1818C301.194 80.1818 300.552 79.9981 299.995 79.6307C299.438 79.2595 299.003 78.7367 298.688 78.0625C298.374 77.3845 298.217 76.5833 298.217 75.6591C298.217 74.7424 298.374 73.947 298.688 73.2727C299.003 72.5985 299.44 72.0777 300.001 71.7102C300.561 71.3428 301.209 71.1591 301.944 71.1591C302.512 71.1591 302.961 71.2538 303.29 71.4432C303.624 71.6288 303.878 71.8409 304.052 72.0795C304.23 72.3144 304.368 72.5076 304.467 72.6591H304.626V71.2727H305.921V83.2727H304.58ZM302.103 78.9773C302.641 78.9773 303.095 78.8371 303.467 78.5568C303.838 78.2727 304.12 77.8807 304.313 77.3807C304.506 76.8769 304.603 76.2955 304.603 75.6364C304.603 74.9848 304.508 74.4148 304.319 73.9261C304.129 73.4337 303.849 73.0511 303.478 72.7784C303.107 72.5019 302.648 72.3636 302.103 72.3636C301.535 72.3636 301.061 72.5095 300.683 72.8011C300.308 73.089 300.025 73.4811 299.836 73.9773C299.65 74.4697 299.558 75.0227 299.558 75.6364C299.558 76.2576 299.652 76.822 299.842 77.3295C300.035 77.8333 300.319 78.2348 300.694 78.5341C301.073 78.8295 301.542 78.9773 302.103 78.9773ZM313.876 76.4318V71.2727H315.217V80H313.876V78.5227H313.785C313.58 78.9659 313.262 79.3428 312.83 79.6534C312.398 79.9602 311.853 80.1136 311.194 80.1136C310.648 80.1136 310.164 79.9943 309.739 79.7557C309.315 79.5133 308.982 79.1496 308.739 78.6648C308.497 78.1761 308.376 77.5606 308.376 76.8182V71.2727H309.717V76.7273C309.717 77.3636 309.895 77.8712 310.251 78.25C310.611 78.6288 311.069 78.8182 311.626 78.8182C311.959 78.8182 312.298 78.733 312.643 78.5625C312.991 78.392 313.283 78.1307 313.518 77.7784C313.756 77.4261 313.876 76.9773 313.876 76.4318ZM321.332 80.1818C320.491 80.1818 319.765 79.9962 319.156 79.625C318.549 79.25 318.082 78.7273 317.752 78.0568C317.426 77.3826 317.263 76.5985 317.263 75.7045C317.263 74.8106 317.426 74.0227 317.752 73.3409C318.082 72.6553 318.54 72.1212 319.127 71.7386C319.718 71.3523 320.407 71.1591 321.195 71.1591C321.65 71.1591 322.099 71.2348 322.542 71.3864C322.985 71.5379 323.388 71.7841 323.752 72.125C324.116 72.4621 324.406 72.9091 324.621 73.4659C324.837 74.0227 324.945 74.7083 324.945 75.5227V76.0909H318.218V74.9318H323.582C323.582 74.4394 323.483 74 323.286 73.6136C323.093 73.2273 322.817 72.9223 322.457 72.6989C322.101 72.4754 321.68 72.3636 321.195 72.3636C320.661 72.3636 320.199 72.4962 319.809 72.7614C319.423 73.0227 319.125 73.3636 318.917 73.7841C318.709 74.2045 318.604 74.6553 318.604 75.1364V75.9091C318.604 76.5682 318.718 77.1269 318.945 77.5852C319.176 78.0398 319.496 78.3864 319.906 78.625C320.315 78.8598 320.79 78.9773 321.332 78.9773C321.684 78.9773 322.002 78.928 322.286 78.8295C322.574 78.7273 322.822 78.5758 323.031 78.375C323.239 78.1705 323.4 77.9167 323.513 77.6136L324.809 77.9773C324.673 78.4167 324.443 78.803 324.121 79.1364C323.799 79.4659 323.402 79.7235 322.928 79.9091C322.455 80.0909 321.923 80.1818 321.332 80.1818ZM333.167 73.2273L331.962 73.5682C331.887 73.3674 331.775 73.1723 331.627 72.983C331.483 72.7898 331.286 72.6307 331.036 72.5057C330.786 72.3807 330.466 72.3182 330.076 72.3182C329.542 72.3182 329.097 72.4413 328.741 72.6875C328.388 72.9299 328.212 73.2386 328.212 73.6136C328.212 73.947 328.334 74.2102 328.576 74.4034C328.818 74.5966 329.197 74.7576 329.712 74.8864L331.008 75.2045C331.788 75.3939 332.37 75.6837 332.752 76.0739C333.135 76.4602 333.326 76.9583 333.326 77.5682C333.326 78.0682 333.182 78.5152 332.894 78.9091C332.61 79.303 332.212 79.6136 331.701 79.8409C331.19 80.0682 330.595 80.1818 329.917 80.1818C329.027 80.1818 328.29 79.9886 327.707 79.6023C327.123 79.2159 326.754 78.6515 326.599 77.9091L327.871 77.5909C327.993 78.0606 328.222 78.4129 328.559 78.6477C328.9 78.8826 329.345 79 329.894 79C330.519 79 331.015 78.8674 331.383 78.6023C331.754 78.3333 331.94 78.0114 331.94 77.6364C331.94 77.3333 331.834 77.0795 331.621 76.875C331.409 76.6667 331.084 76.5114 330.644 76.4091L329.19 76.0682C328.39 75.8788 327.803 75.5852 327.428 75.1875C327.057 74.786 326.871 74.2841 326.871 73.6818C326.871 73.1894 327.01 72.7538 327.286 72.375C327.567 71.9962 327.947 71.6989 328.428 71.483C328.913 71.267 329.462 71.1591 330.076 71.1591C330.94 71.1591 331.618 71.3485 332.11 71.7273C332.606 72.1061 332.959 72.6061 333.167 73.2273ZM339.14 71.2727V72.4091H334.617V71.2727H339.14ZM335.935 69.1818H337.276V77.5C337.276 77.8788 337.331 78.1629 337.441 78.3523C337.555 78.5379 337.699 78.6629 337.873 78.7273C338.051 78.7879 338.238 78.8182 338.435 78.8182C338.583 78.8182 338.704 78.8106 338.799 78.7955C338.894 78.7765 338.969 78.7614 339.026 78.75L339.299 79.9545C339.208 79.9886 339.081 80.0227 338.918 80.0568C338.755 80.0947 338.549 80.1136 338.299 80.1136C337.92 80.1136 337.549 80.0322 337.185 79.8693C336.826 79.7064 336.526 79.4583 336.288 79.125C336.053 78.7917 335.935 78.3712 335.935 77.8636V69.1818Z" fill="white"/>
<path d="M276.584 130.75V136H275.243V124.364H276.584V128.636H276.697C276.902 128.186 277.209 127.828 277.618 127.562C278.031 127.294 278.58 127.159 279.266 127.159C279.86 127.159 280.381 127.278 280.828 127.517C281.275 127.752 281.622 128.114 281.868 128.602C282.118 129.087 282.243 129.705 282.243 130.455V136H280.902V130.545C280.902 129.852 280.722 129.316 280.362 128.938C280.006 128.555 279.512 128.364 278.879 128.364C278.44 128.364 278.046 128.456 277.697 128.642C277.353 128.828 277.08 129.098 276.879 129.455C276.682 129.811 276.584 130.242 276.584 130.75ZM288.491 127.273V128.409H283.969V127.273H288.491ZM285.287 125.182H286.628V133.5C286.628 133.879 286.683 134.163 286.793 134.352C286.906 134.538 287.05 134.663 287.224 134.727C287.402 134.788 287.59 134.818 287.787 134.818C287.935 134.818 288.056 134.811 288.151 134.795C288.245 134.777 288.321 134.761 288.378 134.75L288.651 135.955C288.56 135.989 288.433 136.023 288.27 136.057C288.107 136.095 287.901 136.114 287.651 136.114C287.272 136.114 286.901 136.032 286.537 135.869C286.177 135.706 285.878 135.458 285.639 135.125C285.404 134.792 285.287 134.371 285.287 133.864V125.182ZM290.509 136V127.273H291.804V128.636H291.918C292.099 128.17 292.393 127.809 292.798 127.551C293.204 127.29 293.69 127.159 294.259 127.159C294.834 127.159 295.313 127.29 295.696 127.551C296.082 127.809 296.384 128.17 296.599 128.636H296.69C296.914 128.186 297.249 127.828 297.696 127.562C298.143 127.294 298.679 127.159 299.304 127.159C300.084 127.159 300.723 127.403 301.219 127.892C301.715 128.377 301.963 129.133 301.963 130.159V136H300.622V130.159C300.622 129.515 300.446 129.055 300.094 128.778C299.741 128.502 299.327 128.364 298.849 128.364C298.236 128.364 297.76 128.549 297.423 128.92C297.086 129.288 296.918 129.754 296.918 130.318V136H295.554V130.023C295.554 129.527 295.393 129.127 295.071 128.824C294.749 128.517 294.334 128.364 293.827 128.364C293.478 128.364 293.152 128.456 292.849 128.642C292.55 128.828 292.308 129.085 292.122 129.415C291.94 129.741 291.849 130.117 291.849 130.545V136H290.509ZM305.756 124.364V136H304.415V124.364H305.756Z" fill="white"/>
<path d="M26.3274 146.273V147.409H21.8047V146.273H26.3274ZM23.1229 144.182H24.4638V152.5C24.4638 152.879 24.5187 153.163 24.6286 153.352C24.7422 153.538 24.8861 153.663 25.0604 153.727C25.2384 153.788 25.4259 153.818 25.6229 153.818C25.7706 153.818 25.8918 153.811 25.9865 153.795C26.0812 153.777 26.157 153.761 26.2138 153.75L26.4865 154.955C26.3956 154.989 26.2687 155.023 26.1058 155.057C25.9429 155.095 25.7365 155.114 25.4865 155.114C25.1077 155.114 24.7365 155.032 24.3729 154.869C24.013 154.706 23.7138 154.458 23.4751 154.125C23.2403 153.792 23.1229 153.371 23.1229 152.864V144.182ZM30.9126 155.205C30.3596 155.205 29.8577 155.1 29.407 154.892C28.9562 154.68 28.5982 154.375 28.3331 153.977C28.0679 153.576 27.9354 153.091 27.9354 152.523C27.9354 152.023 28.0339 151.617 28.2308 151.307C28.4278 150.992 28.6911 150.746 29.0206 150.568C29.3501 150.39 29.7138 150.258 30.1115 150.17C30.513 150.08 30.9164 150.008 31.3217 149.955C31.852 149.886 32.282 149.835 32.6115 149.801C32.9448 149.763 33.1873 149.701 33.3388 149.614C33.4941 149.527 33.5717 149.375 33.5717 149.159V149.114C33.5717 148.553 33.4183 148.117 33.1115 147.807C32.8085 147.496 32.3482 147.341 31.7308 147.341C31.0907 147.341 30.5888 147.481 30.2251 147.761C29.8615 148.042 29.6058 148.341 29.4581 148.659L28.1854 148.205C28.4126 147.674 28.7157 147.261 29.0945 146.966C29.477 146.667 29.8937 146.458 30.3445 146.341C30.799 146.22 31.246 146.159 31.6854 146.159C31.9657 146.159 32.2876 146.193 32.6513 146.261C33.0187 146.326 33.3729 146.46 33.7138 146.665C34.0585 146.869 34.3445 147.178 34.5717 147.591C34.799 148.004 34.9126 148.557 34.9126 149.25V155H33.5717V153.818H33.5036C33.4126 154.008 33.2611 154.21 33.049 154.426C32.8369 154.642 32.5547 154.826 32.2024 154.977C31.8501 155.129 31.4202 155.205 30.9126 155.205ZM31.1172 154C31.6475 154 32.0945 153.896 32.4581 153.688C32.8255 153.479 33.102 153.21 33.2876 152.881C33.477 152.551 33.5717 152.205 33.5717 151.841V150.614C33.5149 150.682 33.3899 150.744 33.1967 150.801C33.0073 150.854 32.7876 150.902 32.5376 150.943C32.2914 150.981 32.0509 151.015 31.8161 151.045C31.585 151.072 31.3975 151.095 31.2536 151.114C30.9051 151.159 30.5793 151.233 30.2763 151.335C29.977 151.434 29.7346 151.583 29.549 151.784C29.3672 151.981 29.2763 152.25 29.2763 152.591C29.2763 153.057 29.4486 153.409 29.7933 153.648C30.1418 153.883 30.5831 154 31.1172 154ZM37.3601 155V146.273H38.6555V147.591H38.7464C38.9055 147.159 39.1934 146.809 39.6101 146.54C40.0268 146.271 40.4964 146.136 41.0192 146.136C41.1177 146.136 41.2408 146.138 41.3885 146.142C41.5362 146.146 41.648 146.152 41.7237 146.159V147.523C41.6783 147.511 41.5741 147.494 41.4112 147.472C41.2521 147.445 41.0836 147.432 40.9055 147.432C40.4813 147.432 40.1025 147.521 39.7692 147.699C39.4396 147.873 39.1783 148.116 38.9851 148.426C38.7957 148.733 38.701 149.083 38.701 149.477V155H37.3601ZM46.5703 158.455C45.9226 158.455 45.3658 158.371 44.8999 158.205C44.4339 158.042 44.0457 157.826 43.7351 157.557C43.4283 157.292 43.1839 157.008 43.0021 156.705L44.0703 155.955C44.1915 156.114 44.3449 156.295 44.5305 156.5C44.7161 156.708 44.9699 156.888 45.2919 157.04C45.6177 157.195 46.0438 157.273 46.5703 157.273C47.2749 157.273 47.8563 157.102 48.3146 156.761C48.773 156.42 49.0021 155.886 49.0021 155.159V153.386H48.8885C48.79 153.545 48.6499 153.742 48.468 153.977C48.29 154.208 48.0324 154.415 47.6953 154.597C47.362 154.775 46.9112 154.864 46.343 154.864C45.6385 154.864 45.0059 154.697 44.4453 154.364C43.8885 154.03 43.4472 153.545 43.1214 152.909C42.7995 152.273 42.6385 151.5 42.6385 150.591C42.6385 149.697 42.7957 148.919 43.1101 148.256C43.4245 147.589 43.862 147.074 44.4226 146.71C44.9832 146.343 45.6309 146.159 46.3658 146.159C46.9339 146.159 47.3847 146.254 47.718 146.443C48.0552 146.629 48.3127 146.841 48.4908 147.08C48.6726 147.314 48.8127 147.508 48.9112 147.659H49.0476V146.273H50.343V155.25C50.343 156 50.1726 156.61 49.8317 157.08C49.4946 157.553 49.04 157.9 48.468 158.119C47.8999 158.343 47.2673 158.455 46.5703 158.455ZM46.5249 153.659C47.0627 153.659 47.5173 153.536 47.8885 153.29C48.2597 153.044 48.5419 152.689 48.7351 152.227C48.9283 151.765 49.0249 151.212 49.0249 150.568C49.0249 149.939 48.9302 149.384 48.7408 148.903C48.5514 148.422 48.2711 148.045 47.8999 147.773C47.5286 147.5 47.0703 147.364 46.5249 147.364C45.9567 147.364 45.4832 147.508 45.1044 147.795C44.7294 148.083 44.4472 148.47 44.2578 148.955C44.0722 149.439 43.9794 149.977 43.9794 150.568C43.9794 151.174 44.0741 151.71 44.2635 152.176C44.4567 152.638 44.7408 153.002 45.1158 153.267C45.4946 153.528 45.9643 153.659 46.5249 153.659ZM56.4567 155.182C55.6158 155.182 54.8904 154.996 54.2805 154.625C53.6745 154.25 53.2067 153.727 52.8771 153.057C52.5514 152.383 52.3885 151.598 52.3885 150.705C52.3885 149.811 52.5514 149.023 52.8771 148.341C53.2067 147.655 53.665 147.121 54.2521 146.739C54.843 146.352 55.5324 146.159 56.3203 146.159C56.7749 146.159 57.2237 146.235 57.6669 146.386C58.1101 146.538 58.5135 146.784 58.8771 147.125C59.2408 147.462 59.5305 147.909 59.7464 148.466C59.9624 149.023 60.0703 149.708 60.0703 150.523V151.091H53.343V149.932H58.7067C58.7067 149.439 58.6082 149 58.4112 148.614C58.218 148.227 57.9415 147.922 57.5817 147.699C57.2256 147.475 56.8052 147.364 56.3203 147.364C55.7862 147.364 55.3241 147.496 54.9339 147.761C54.5476 148.023 54.2502 148.364 54.0419 148.784C53.8336 149.205 53.7294 149.655 53.7294 150.136V150.909C53.7294 151.568 53.843 152.127 54.0703 152.585C54.3014 153.04 54.6214 153.386 55.0305 153.625C55.4396 153.86 55.915 153.977 56.4567 153.977C56.8089 153.977 57.1271 153.928 57.4112 153.83C57.6991 153.727 57.9472 153.576 58.1555 153.375C58.3639 153.17 58.5249 152.917 58.6385 152.614L59.9339 152.977C59.7976 153.417 59.5684 153.803 59.2464 154.136C58.9245 154.466 58.5268 154.723 58.0533 154.909C57.5798 155.091 57.0476 155.182 56.4567 155.182ZM65.9055 146.273V147.409H61.3828V146.273H65.9055ZM62.701 144.182H64.0419V152.5C64.0419 152.879 64.0968 153.163 64.2067 153.352C64.3203 153.538 64.4643 153.663 64.6385 153.727C64.8165 153.788 65.004 153.818 65.201 153.818C65.3487 153.818 65.4699 153.811 65.5646 153.795C65.6593 153.777 65.7351 153.761 65.7919 153.75L66.0646 154.955C65.9737 154.989 65.8468 155.023 65.6839 155.057C65.5211 155.095 65.3146 155.114 65.0646 155.114C64.6858 155.114 64.3146 155.032 63.951 154.869C63.5911 154.706 63.2919 154.458 63.0533 154.125C62.8184 153.792 62.701 153.371 62.701 152.864V144.182Z" fill="white"/>
</svg>
