<svg width="574" height="282" viewBox="0 0 574 282" fill="none" xmlns="http://www.w3.org/2000/svg">
<rect x="187" y="85" width="144" height="114" fill="#D9D9D9"/>
<path d="M229.986 138.565C229.918 137.878 229.625 137.344 229.108 136.963C228.591 136.582 227.889 136.392 227.003 136.392C226.401 136.392 225.892 136.477 225.477 136.648C225.063 136.812 224.744 137.043 224.523 137.338C224.307 137.634 224.199 137.969 224.199 138.344C224.188 138.656 224.253 138.929 224.395 139.162C224.543 139.395 224.744 139.597 225 139.767C225.256 139.932 225.551 140.077 225.886 140.202C226.222 140.321 226.58 140.423 226.96 140.509L228.528 140.884C229.29 141.054 229.989 141.281 230.625 141.565C231.261 141.849 231.813 142.199 232.278 142.614C232.744 143.028 233.105 143.517 233.361 144.08C233.622 144.642 233.756 145.287 233.761 146.014C233.756 147.082 233.483 148.009 232.943 148.793C232.409 149.571 231.636 150.176 230.625 150.608C229.619 151.034 228.406 151.247 226.986 151.247C225.577 151.247 224.349 151.031 223.304 150.599C222.264 150.168 221.452 149.528 220.866 148.682C220.287 147.83 219.983 146.776 219.955 145.52H223.526C223.565 146.105 223.733 146.594 224.028 146.986C224.33 147.372 224.73 147.665 225.23 147.864C225.736 148.057 226.307 148.153 226.943 148.153C227.568 148.153 228.111 148.062 228.571 147.881C229.037 147.699 229.398 147.446 229.653 147.122C229.909 146.798 230.037 146.426 230.037 146.006C230.037 145.614 229.92 145.284 229.688 145.017C229.46 144.75 229.125 144.523 228.682 144.335C228.244 144.148 227.707 143.977 227.071 143.824L225.17 143.347C223.699 142.989 222.537 142.429 221.685 141.668C220.832 140.906 220.409 139.881 220.415 138.591C220.409 137.534 220.69 136.611 221.259 135.821C221.832 135.031 222.619 134.415 223.619 133.972C224.619 133.528 225.756 133.307 227.028 133.307C228.324 133.307 229.455 133.528 230.42 133.972C231.392 134.415 232.148 135.031 232.688 135.821C233.227 136.611 233.506 137.526 233.523 138.565H229.986ZM242.141 151.256C240.795 151.256 239.636 150.983 238.664 150.438C237.698 149.886 236.954 149.108 236.431 148.102C235.908 147.091 235.647 145.895 235.647 144.514C235.647 143.168 235.908 141.986 236.431 140.969C236.954 139.952 237.69 139.159 238.638 138.591C239.593 138.023 240.712 137.739 241.996 137.739C242.86 137.739 243.664 137.878 244.408 138.156C245.158 138.429 245.812 138.841 246.369 139.392C246.931 139.943 247.369 140.636 247.681 141.472C247.994 142.301 248.15 143.273 248.15 144.386V145.384H237.096V143.134H244.732C244.732 142.611 244.619 142.148 244.391 141.744C244.164 141.341 243.849 141.026 243.445 140.798C243.048 140.565 242.585 140.449 242.056 140.449C241.505 140.449 241.016 140.577 240.59 140.832C240.17 141.082 239.84 141.42 239.602 141.847C239.363 142.267 239.241 142.736 239.235 143.253V145.392C239.235 146.04 239.354 146.599 239.593 147.071C239.837 147.543 240.181 147.906 240.624 148.162C241.067 148.418 241.593 148.545 242.201 148.545C242.604 148.545 242.974 148.489 243.309 148.375C243.644 148.261 243.931 148.091 244.17 147.864C244.408 147.636 244.59 147.358 244.715 147.028L248.073 147.25C247.903 148.057 247.553 148.761 247.025 149.364C246.502 149.96 245.826 150.426 244.996 150.761C244.173 151.091 243.221 151.256 242.141 151.256ZM250.519 151V137.909H254.039V140.193H254.175C254.414 139.381 254.815 138.767 255.377 138.352C255.94 137.932 256.587 137.722 257.32 137.722C257.502 137.722 257.698 137.733 257.908 137.756C258.119 137.778 258.303 137.81 258.462 137.849V141.071C258.292 141.02 258.056 140.974 257.755 140.935C257.454 140.895 257.178 140.875 256.928 140.875C256.394 140.875 255.917 140.991 255.496 141.224C255.082 141.452 254.752 141.77 254.508 142.179C254.269 142.588 254.15 143.06 254.15 143.594V151H250.519ZM272.942 137.909L268.366 151H264.275L259.698 137.909H263.533L266.252 147.276H266.388L269.099 137.909H272.942ZM280.344 151.256C278.998 151.256 277.839 150.983 276.867 150.438C275.901 149.886 275.157 149.108 274.634 148.102C274.112 147.091 273.85 145.895 273.85 144.514C273.85 143.168 274.112 141.986 274.634 140.969C275.157 139.952 275.893 139.159 276.842 138.591C277.796 138.023 278.915 137.739 280.2 137.739C281.063 137.739 281.867 137.878 282.612 138.156C283.362 138.429 284.015 138.841 284.572 139.392C285.134 139.943 285.572 140.636 285.884 141.472C286.197 142.301 286.353 143.273 286.353 144.386V145.384H275.299V143.134H282.935C282.935 142.611 282.822 142.148 282.594 141.744C282.367 141.341 282.052 141.026 281.648 140.798C281.251 140.565 280.788 140.449 280.259 140.449C279.708 140.449 279.219 140.577 278.793 140.832C278.373 141.082 278.043 141.42 277.805 141.847C277.566 142.267 277.444 142.736 277.438 143.253V145.392C277.438 146.04 277.558 146.599 277.796 147.071C278.04 147.543 278.384 147.906 278.827 148.162C279.271 148.418 279.796 148.545 280.404 148.545C280.808 148.545 281.177 148.489 281.512 148.375C281.847 148.261 282.134 148.091 282.373 147.864C282.612 147.636 282.793 147.358 282.918 147.028L286.276 147.25C286.106 148.057 285.756 148.761 285.228 149.364C284.705 149.96 284.029 150.426 283.2 150.761C282.376 151.091 281.424 151.256 280.344 151.256ZM288.722 151V137.909H292.242V140.193H292.379C292.617 139.381 293.018 138.767 293.58 138.352C294.143 137.932 294.79 137.722 295.523 137.722C295.705 137.722 295.901 137.733 296.112 137.756C296.322 137.778 296.506 137.81 296.665 137.849V141.071C296.495 141.02 296.259 140.974 295.958 140.935C295.657 140.895 295.381 140.875 295.131 140.875C294.597 140.875 294.12 140.991 293.7 141.224C293.285 141.452 292.955 141.77 292.711 142.179C292.472 142.588 292.353 143.06 292.353 143.594V151H288.722Z" fill="black"/>
<rect y="85" width="144" height="114" fill="#D9D9D9"/>
<path d="M62.7045 151H56.517V133.545H62.7557C64.5114 133.545 66.0227 133.895 67.2898 134.594C68.5568 135.287 69.5313 136.284 70.2131 137.585C70.9006 138.886 71.2443 140.443 71.2443 142.256C71.2443 144.074 70.9006 145.636 70.2131 146.943C69.5313 148.25 68.5511 149.253 67.2727 149.952C66 150.651 64.4773 151 62.7045 151ZM60.2074 147.838H62.5511C63.642 147.838 64.5597 147.645 65.304 147.259C66.054 146.866 66.6165 146.261 66.9915 145.443C67.3722 144.619 67.5625 143.557 67.5625 142.256C67.5625 140.966 67.3722 139.912 66.9915 139.094C66.6165 138.276 66.0568 137.673 65.3125 137.287C64.5682 136.901 63.6506 136.707 62.5597 136.707H60.2074V147.838ZM73.978 151V133.545H80.9666C82.2507 133.545 83.3217 133.736 84.1797 134.116C85.0376 134.497 85.6825 135.026 86.1143 135.702C86.5462 136.372 86.7621 137.145 86.7621 138.02C86.7621 138.702 86.6257 139.301 86.353 139.818C86.0803 140.33 85.7053 140.75 85.228 141.08C84.7564 141.403 84.2166 141.634 83.6087 141.77V141.94C84.2734 141.969 84.8956 142.156 85.4751 142.503C86.0604 142.849 86.5348 143.335 86.8984 143.96C87.2621 144.58 87.4439 145.318 87.4439 146.176C87.4439 147.102 87.2138 147.929 86.7536 148.656C86.299 149.378 85.6257 149.949 84.7337 150.369C83.8416 150.79 82.7422 151 81.4354 151H73.978ZM77.6683 147.983H80.6768C81.7053 147.983 82.4553 147.787 82.9268 147.395C83.3984 146.997 83.6342 146.469 83.6342 145.81C83.6342 145.327 83.5178 144.901 83.2848 144.531C83.0518 144.162 82.7195 143.872 82.2876 143.662C81.8615 143.452 81.353 143.347 80.7621 143.347H77.6683V147.983ZM77.6683 140.849H80.4041C80.9098 140.849 81.3587 140.761 81.7507 140.585C82.1484 140.403 82.4609 140.148 82.6882 139.818C82.9212 139.489 83.0376 139.094 83.0376 138.634C83.0376 138.003 82.8132 137.494 82.3643 137.108C81.9212 136.722 81.2905 136.528 80.4723 136.528H77.6683V140.849Z" fill="black"/>
<rect x="430" y="85" width="144" height="114" fill="#D9D9D9"/>
<path d="M484.054 139.656H480.321C480.253 139.173 480.114 138.744 479.904 138.369C479.694 137.989 479.424 137.665 479.094 137.398C478.765 137.131 478.384 136.926 477.952 136.784C477.526 136.642 477.063 136.571 476.563 136.571C475.659 136.571 474.873 136.795 474.202 137.244C473.532 137.687 473.012 138.335 472.642 139.188C472.273 140.034 472.088 141.062 472.088 142.273C472.088 143.517 472.273 144.562 472.642 145.409C473.017 146.256 473.54 146.895 474.211 147.327C474.881 147.759 475.657 147.974 476.537 147.974C477.032 147.974 477.489 147.909 477.909 147.778C478.336 147.648 478.713 147.457 479.043 147.207C479.373 146.952 479.645 146.642 479.861 146.278C480.083 145.915 480.236 145.5 480.321 145.034L484.054 145.051C483.958 145.852 483.716 146.625 483.33 147.369C482.949 148.108 482.435 148.77 481.787 149.355C481.145 149.935 480.378 150.395 479.486 150.736C478.6 151.071 477.597 151.239 476.478 151.239C474.921 151.239 473.529 150.886 472.301 150.182C471.08 149.477 470.114 148.457 469.404 147.122C468.699 145.787 468.347 144.17 468.347 142.273C468.347 140.369 468.705 138.75 469.421 137.415C470.137 136.08 471.108 135.062 472.336 134.364C473.563 133.659 474.944 133.307 476.478 133.307C477.489 133.307 478.426 133.449 479.29 133.733C480.159 134.017 480.929 134.432 481.6 134.977C482.27 135.517 482.816 136.179 483.236 136.963C483.662 137.747 483.935 138.645 484.054 139.656ZM490.263 133.545V151H486.632V133.545H490.263ZM493.172 151V137.909H496.802V151H493.172ZM494.995 136.222C494.456 136.222 493.993 136.043 493.606 135.685C493.225 135.321 493.035 134.886 493.035 134.381C493.035 133.881 493.225 133.452 493.606 133.094C493.993 132.73 494.456 132.548 494.995 132.548C495.535 132.548 495.995 132.73 496.376 133.094C496.762 133.452 496.956 133.881 496.956 134.381C496.956 134.886 496.762 135.321 496.376 135.685C495.995 136.043 495.535 136.222 494.995 136.222ZM505.676 151.256C504.33 151.256 503.171 150.983 502.199 150.438C501.233 149.886 500.489 149.108 499.966 148.102C499.444 147.091 499.182 145.895 499.182 144.514C499.182 143.168 499.444 141.986 499.966 140.969C500.489 139.952 501.225 139.159 502.174 138.591C503.128 138.023 504.248 137.739 505.532 137.739C506.395 137.739 507.199 137.878 507.944 138.156C508.694 138.429 509.347 138.841 509.904 139.392C510.466 139.943 510.904 140.636 511.216 141.472C511.529 142.301 511.685 143.273 511.685 144.386V145.384H500.631V143.134H508.267C508.267 142.611 508.154 142.148 507.926 141.744C507.699 141.341 507.384 141.026 506.98 140.798C506.583 140.565 506.12 140.449 505.591 140.449C505.04 140.449 504.551 140.577 504.125 140.832C503.705 141.082 503.375 141.42 503.137 141.847C502.898 142.267 502.776 142.736 502.77 143.253V145.392C502.77 146.04 502.89 146.599 503.128 147.071C503.373 147.543 503.716 147.906 504.159 148.162C504.603 148.418 505.128 148.545 505.736 148.545C506.14 148.545 506.509 148.489 506.844 148.375C507.179 148.261 507.466 148.091 507.705 147.864C507.944 147.636 508.125 147.358 508.25 147.028L511.608 147.25C511.438 148.057 511.088 148.761 510.56 149.364C510.037 149.96 509.361 150.426 508.532 150.761C507.708 151.091 506.756 151.256 505.676 151.256ZM517.685 143.432V151H514.054V137.909H517.515V140.219H517.668C517.958 139.457 518.444 138.855 519.125 138.412C519.807 137.963 520.634 137.739 521.605 137.739C522.515 137.739 523.307 137.938 523.983 138.335C524.659 138.733 525.185 139.301 525.56 140.04C525.935 140.773 526.123 141.648 526.123 142.665V151H522.492V143.312C522.498 142.511 522.293 141.886 521.878 141.438C521.463 140.983 520.892 140.756 520.165 140.756C519.676 140.756 519.245 140.861 518.87 141.071C518.5 141.281 518.211 141.588 518 141.991C517.796 142.389 517.691 142.869 517.685 143.432ZM535.947 137.909V140.636H528.064V137.909H535.947ZM529.853 134.773H533.484V146.977C533.484 147.312 533.535 147.574 533.637 147.761C533.74 147.943 533.882 148.071 534.064 148.145C534.251 148.219 534.467 148.256 534.711 148.256C534.882 148.256 535.052 148.241 535.223 148.213C535.393 148.179 535.524 148.153 535.615 148.136L536.186 150.838C536.004 150.895 535.748 150.96 535.419 151.034C535.089 151.114 534.689 151.162 534.217 151.179C533.342 151.213 532.575 151.097 531.916 150.83C531.262 150.562 530.754 150.148 530.39 149.585C530.027 149.023 529.848 148.312 529.853 147.455V134.773Z" fill="black"/>
<path d="M179.707 125.707C180.098 125.317 180.098 124.683 179.707 124.293L173.343 117.929C172.953 117.538 172.319 117.538 171.929 117.929C171.538 118.319 171.538 118.953 171.929 119.343L177.586 125L171.929 130.657C171.538 131.047 171.538 131.681 171.929 132.071C172.319 132.462 172.953 132.462 173.343 132.071L179.707 125.707ZM152 126H179V124H152V126Z" fill="white"/>
<path d="M151.293 158.293C150.902 158.683 150.902 159.317 151.293 159.707L157.657 166.071C158.047 166.462 158.681 166.462 159.071 166.071C159.462 165.681 159.462 165.047 159.071 164.657L153.414 159L159.071 153.343C159.462 152.953 159.462 152.319 159.071 151.929C158.681 151.538 158.047 151.538 157.657 151.929L151.293 158.293ZM179 158L152 158L152 160L179 160L179 158Z" fill="white"/>
<path d="M421.707 125.707C422.098 125.317 422.098 124.683 421.707 124.293L415.343 117.929C414.953 117.538 414.319 117.538 413.929 117.929C413.538 118.319 413.538 118.953 413.929 119.343L419.586 125L413.929 130.657C413.538 131.047 413.538 131.681 413.929 132.071C414.319 132.462 414.953 132.462 415.343 132.071L421.707 125.707ZM339 126H421V124H339V126Z" fill="white"/>
<path d="M338.293 158.293C337.902 158.683 337.902 159.317 338.293 159.707L344.657 166.071C345.047 166.462 345.681 166.462 346.071 166.071C346.462 165.681 346.462 165.047 346.071 164.657L340.414 159L346.071 153.343C346.462 152.953 346.462 152.319 346.071 151.929C345.681 151.538 345.047 151.538 344.657 151.929L338.293 158.293ZM421 158L339 158L339 160L421 160L421 158Z" fill="white"/>
<path d="M175.685 276V258.545H182.674C183.958 258.545 185.029 258.736 185.887 259.116C186.745 259.497 187.39 260.026 187.821 260.702C188.253 261.372 188.469 262.145 188.469 263.02C188.469 263.702 188.333 264.301 188.06 264.818C187.787 265.33 187.412 265.75 186.935 266.08C186.463 266.403 185.924 266.634 185.316 266.77V266.94C185.98 266.969 186.603 267.156 187.182 267.503C187.767 267.849 188.242 268.335 188.605 268.96C188.969 269.58 189.151 270.318 189.151 271.176C189.151 272.102 188.921 272.929 188.461 273.656C188.006 274.378 187.333 274.949 186.441 275.369C185.549 275.79 184.449 276 183.142 276H175.685ZM179.375 272.983H182.384C183.412 272.983 184.162 272.787 184.634 272.395C185.105 271.997 185.341 271.469 185.341 270.81C185.341 270.327 185.225 269.901 184.992 269.531C184.759 269.162 184.426 268.872 183.995 268.662C183.569 268.452 183.06 268.347 182.469 268.347H179.375V272.983ZM179.375 265.849H182.111C182.617 265.849 183.066 265.761 183.458 265.585C183.855 265.403 184.168 265.148 184.395 264.818C184.628 264.489 184.745 264.094 184.745 263.634C184.745 263.003 184.52 262.494 184.071 262.108C183.628 261.722 182.998 261.528 182.179 261.528H179.375V265.849ZM199.879 270.426V262.909H203.51V276H200.024V273.622H199.887C199.592 274.389 199.1 275.006 198.413 275.472C197.731 275.937 196.899 276.17 195.916 276.17C195.041 276.17 194.271 275.972 193.606 275.574C192.941 275.176 192.422 274.611 192.047 273.878C191.677 273.145 191.49 272.267 191.484 271.244V262.909H195.115V270.597C195.12 271.369 195.328 271.98 195.737 272.429C196.146 272.878 196.694 273.102 197.382 273.102C197.819 273.102 198.228 273.003 198.609 272.804C198.99 272.599 199.297 272.298 199.529 271.901C199.768 271.503 199.885 271.011 199.879 270.426ZM217.306 266.642L213.982 266.847C213.925 266.562 213.803 266.307 213.615 266.08C213.428 265.847 213.181 265.662 212.874 265.526C212.573 265.384 212.212 265.312 211.792 265.312C211.229 265.312 210.755 265.432 210.368 265.67C209.982 265.903 209.789 266.216 209.789 266.608C209.789 266.92 209.914 267.185 210.164 267.401C210.414 267.616 210.843 267.79 211.451 267.92L213.82 268.398C215.093 268.659 216.042 269.08 216.667 269.659C217.292 270.239 217.604 271 217.604 271.943C217.604 272.801 217.351 273.554 216.846 274.202C216.346 274.849 215.658 275.355 214.783 275.719C213.914 276.077 212.911 276.256 211.775 276.256C210.042 276.256 208.661 275.895 207.632 275.173C206.61 274.446 206.01 273.457 205.834 272.207L209.405 272.02C209.513 272.548 209.775 272.952 210.189 273.23C210.604 273.503 211.135 273.639 211.783 273.639C212.419 273.639 212.931 273.517 213.317 273.273C213.709 273.023 213.908 272.702 213.914 272.31C213.908 271.98 213.769 271.71 213.496 271.5C213.223 271.284 212.803 271.119 212.235 271.006L209.968 270.554C208.689 270.298 207.738 269.855 207.113 269.224C206.493 268.594 206.184 267.79 206.184 266.812C206.184 265.972 206.411 265.247 206.865 264.639C207.326 264.031 207.971 263.562 208.8 263.233C209.635 262.903 210.613 262.739 211.732 262.739C213.385 262.739 214.686 263.088 215.635 263.787C216.59 264.486 217.147 265.437 217.306 266.642ZM219.89 276V262.909H223.521V276H219.89ZM221.714 261.222C221.174 261.222 220.711 261.043 220.325 260.685C219.944 260.321 219.754 259.886 219.754 259.381C219.754 258.881 219.944 258.452 220.325 258.094C220.711 257.73 221.174 257.548 221.714 257.548C222.254 257.548 222.714 257.73 223.095 258.094C223.481 258.452 223.674 258.881 223.674 259.381C223.674 259.886 223.481 260.321 223.095 260.685C222.714 261.043 222.254 261.222 221.714 261.222ZM230.06 268.432V276H226.429V262.909H229.89V265.219H230.043C230.333 264.457 230.819 263.855 231.5 263.412C232.182 262.963 233.009 262.739 233.98 262.739C234.89 262.739 235.682 262.938 236.358 263.335C237.034 263.733 237.56 264.301 237.935 265.04C238.31 265.773 238.498 266.648 238.498 267.665V276H234.867V268.312C234.873 267.511 234.668 266.886 234.253 266.438C233.838 265.983 233.267 265.756 232.54 265.756C232.051 265.756 231.62 265.861 231.245 266.071C230.875 266.281 230.586 266.588 230.375 266.991C230.171 267.389 230.066 267.869 230.06 268.432ZM247.325 276.256C245.978 276.256 244.819 275.983 243.848 275.438C242.882 274.886 242.137 274.108 241.615 273.102C241.092 272.091 240.831 270.895 240.831 269.514C240.831 268.168 241.092 266.986 241.615 265.969C242.137 264.952 242.873 264.159 243.822 263.591C244.777 263.023 245.896 262.739 247.18 262.739C248.044 262.739 248.848 262.878 249.592 263.156C250.342 263.429 250.995 263.841 251.552 264.392C252.115 264.943 252.552 265.636 252.865 266.472C253.177 267.301 253.333 268.273 253.333 269.386V270.384H242.279V268.134H249.916C249.916 267.611 249.802 267.148 249.575 266.744C249.348 266.341 249.032 266.026 248.629 265.798C248.231 265.565 247.768 265.449 247.24 265.449C246.689 265.449 246.2 265.577 245.774 265.832C245.353 266.082 245.024 266.42 244.785 266.847C244.547 267.267 244.424 267.736 244.419 268.253V270.392C244.419 271.04 244.538 271.599 244.777 272.071C245.021 272.543 245.365 272.906 245.808 273.162C246.251 273.418 246.777 273.545 247.385 273.545C247.788 273.545 248.157 273.489 248.493 273.375C248.828 273.261 249.115 273.091 249.353 272.864C249.592 272.636 249.774 272.358 249.899 272.028L253.257 272.25C253.086 273.057 252.737 273.761 252.208 274.364C251.686 274.96 251.01 275.426 250.18 275.761C249.356 276.091 248.404 276.256 247.325 276.256ZM266.595 266.642L263.271 266.847C263.214 266.562 263.092 266.307 262.904 266.08C262.717 265.847 262.47 265.662 262.163 265.526C261.862 265.384 261.501 265.312 261.081 265.312C260.518 265.312 260.044 265.432 259.657 265.67C259.271 265.903 259.078 266.216 259.078 266.608C259.078 266.92 259.203 267.185 259.453 267.401C259.703 267.616 260.132 267.79 260.74 267.92L263.109 268.398C264.382 268.659 265.331 269.08 265.956 269.659C266.581 270.239 266.893 271 266.893 271.943C266.893 272.801 266.64 273.554 266.135 274.202C265.635 274.849 264.947 275.355 264.072 275.719C263.203 276.077 262.2 276.256 261.064 276.256C259.331 276.256 257.95 275.895 256.922 275.173C255.899 274.446 255.299 273.457 255.123 272.207L258.694 272.02C258.802 272.548 259.064 272.952 259.478 273.23C259.893 273.503 260.424 273.639 261.072 273.639C261.708 273.639 262.22 273.517 262.606 273.273C262.998 273.023 263.197 272.702 263.203 272.31C263.197 271.98 263.058 271.71 262.785 271.5C262.512 271.284 262.092 271.119 261.524 271.006L259.257 270.554C257.978 270.298 257.027 269.855 256.402 269.224C255.782 268.594 255.473 267.79 255.473 266.812C255.473 265.972 255.7 265.247 256.154 264.639C256.615 264.031 257.26 263.562 258.089 263.233C258.924 262.903 259.902 262.739 261.021 262.739C262.674 262.739 263.975 263.088 264.924 263.787C265.879 264.486 266.436 265.437 266.595 266.642ZM280.071 266.642L276.748 266.847C276.691 266.562 276.569 266.307 276.381 266.08C276.194 265.847 275.946 265.662 275.64 265.526C275.338 265.384 274.978 265.312 274.557 265.312C273.995 265.312 273.52 265.432 273.134 265.67C272.748 265.903 272.554 266.216 272.554 266.608C272.554 266.92 272.679 267.185 272.929 267.401C273.179 267.616 273.608 267.79 274.216 267.92L276.586 268.398C277.858 268.659 278.807 269.08 279.432 269.659C280.057 270.239 280.37 271 280.37 271.943C280.37 272.801 280.117 273.554 279.611 274.202C279.111 274.849 278.424 275.355 277.549 275.719C276.679 276.077 275.676 276.256 274.54 276.256C272.807 276.256 271.426 275.895 270.398 275.173C269.375 274.446 268.776 273.457 268.6 272.207L272.171 272.02C272.279 272.548 272.54 272.952 272.955 273.23C273.37 273.503 273.901 273.639 274.549 273.639C275.185 273.639 275.696 273.517 276.083 273.273C276.475 273.023 276.674 272.702 276.679 272.31C276.674 271.98 276.534 271.71 276.262 271.5C275.989 271.284 275.569 271.119 275 271.006L272.733 270.554C271.455 270.298 270.503 269.855 269.878 269.224C269.259 268.594 268.949 267.79 268.949 266.812C268.949 265.972 269.176 265.247 269.631 264.639C270.091 264.031 270.736 263.562 271.566 263.233C272.401 262.903 273.378 262.739 274.498 262.739C276.151 262.739 277.452 263.088 278.401 263.787C279.355 264.486 279.912 265.437 280.071 266.642ZM291.841 258.545V276H288.211V258.545H291.841ZM300.664 276.256C299.341 276.256 298.196 275.974 297.23 275.412C296.27 274.844 295.528 274.054 295.005 273.043C294.483 272.026 294.221 270.847 294.221 269.506C294.221 268.153 294.483 266.972 295.005 265.96C295.528 264.943 296.27 264.153 297.23 263.591C298.196 263.023 299.341 262.739 300.664 262.739C301.988 262.739 303.13 263.023 304.091 263.591C305.056 264.153 305.801 264.943 306.324 265.96C306.846 266.972 307.108 268.153 307.108 269.506C307.108 270.847 306.846 272.026 306.324 273.043C305.801 274.054 305.056 274.844 304.091 275.412C303.13 275.974 301.988 276.256 300.664 276.256ZM300.681 273.443C301.284 273.443 301.787 273.273 302.19 272.932C302.593 272.585 302.897 272.114 303.102 271.517C303.312 270.92 303.417 270.241 303.417 269.48C303.417 268.719 303.312 268.04 303.102 267.443C302.897 266.847 302.593 266.375 302.19 266.028C301.787 265.682 301.284 265.509 300.681 265.509C300.074 265.509 299.562 265.682 299.147 266.028C298.738 266.375 298.429 266.847 298.218 267.443C298.014 268.04 297.912 268.719 297.912 269.48C297.912 270.241 298.014 270.92 298.218 271.517C298.429 272.114 298.738 272.585 299.147 272.932C299.562 273.273 300.074 273.443 300.681 273.443ZM315.366 281.182C314.19 281.182 313.181 281.02 312.341 280.696C311.505 280.378 310.841 279.943 310.346 279.392C309.852 278.841 309.531 278.222 309.383 277.534L312.741 277.082C312.843 277.344 313.005 277.588 313.227 277.815C313.449 278.043 313.741 278.224 314.105 278.361C314.474 278.503 314.923 278.574 315.451 278.574C316.241 278.574 316.892 278.381 317.403 277.994C317.92 277.614 318.179 276.974 318.179 276.077V273.682H318.025C317.866 274.045 317.627 274.389 317.309 274.713C316.991 275.037 316.582 275.301 316.082 275.506C315.582 275.71 314.985 275.812 314.292 275.812C313.309 275.812 312.414 275.585 311.608 275.131C310.806 274.67 310.167 273.969 309.69 273.026C309.218 272.077 308.983 270.878 308.983 269.429C308.983 267.946 309.224 266.707 309.707 265.713C310.19 264.719 310.832 263.974 311.633 263.48C312.44 262.986 313.324 262.739 314.284 262.739C315.017 262.739 315.63 262.864 316.125 263.114C316.619 263.358 317.017 263.665 317.318 264.034C317.625 264.398 317.86 264.756 318.025 265.108H318.162V262.909H321.767V276.128C321.767 277.241 321.494 278.173 320.949 278.923C320.403 279.673 319.647 280.236 318.681 280.611C317.721 280.991 316.616 281.182 315.366 281.182ZM315.443 273.085C316.028 273.085 316.522 272.94 316.926 272.651C317.335 272.355 317.647 271.935 317.863 271.389C318.085 270.838 318.196 270.179 318.196 269.412C318.196 268.645 318.088 267.98 317.872 267.418C317.656 266.849 317.343 266.409 316.934 266.097C316.525 265.784 316.028 265.628 315.443 265.628C314.846 265.628 314.343 265.79 313.934 266.114C313.525 266.432 313.216 266.875 313.005 267.443C312.795 268.011 312.69 268.668 312.69 269.412C312.69 270.168 312.795 270.821 313.005 271.372C313.221 271.918 313.531 272.341 313.934 272.642C314.343 272.937 314.846 273.085 315.443 273.085ZM324.656 276V262.909H328.287V276H324.656ZM326.48 261.222C325.94 261.222 325.477 261.043 325.091 260.685C324.71 260.321 324.52 259.886 324.52 259.381C324.52 258.881 324.71 258.452 325.091 258.094C325.477 257.73 325.94 257.548 326.48 257.548C327.02 257.548 327.48 257.73 327.86 258.094C328.247 258.452 328.44 258.881 328.44 259.381C328.44 259.886 328.247 260.321 327.86 260.685C327.48 261.043 327.02 261.222 326.48 261.222ZM337.11 276.256C335.769 276.256 334.615 275.972 333.65 275.403C332.689 274.83 331.951 274.034 331.434 273.017C330.922 272 330.667 270.83 330.667 269.506C330.667 268.165 330.925 266.989 331.442 265.977C331.965 264.96 332.706 264.168 333.667 263.599C334.627 263.026 335.769 262.739 337.093 262.739C338.235 262.739 339.235 262.946 340.093 263.361C340.951 263.776 341.63 264.358 342.13 265.108C342.63 265.858 342.905 266.739 342.956 267.75H339.53C339.434 267.097 339.178 266.571 338.763 266.173C338.354 265.77 337.817 265.568 337.152 265.568C336.59 265.568 336.098 265.722 335.678 266.028C335.263 266.33 334.939 266.77 334.706 267.349C334.473 267.929 334.357 268.631 334.357 269.455C334.357 270.29 334.471 271 334.698 271.585C334.931 272.17 335.257 272.616 335.678 272.923C336.098 273.23 336.59 273.384 337.152 273.384C337.567 273.384 337.939 273.298 338.269 273.128C338.604 272.957 338.88 272.71 339.096 272.386C339.317 272.057 339.462 271.662 339.53 271.202H342.956C342.9 272.202 342.627 273.082 342.138 273.844C341.655 274.599 340.988 275.19 340.135 275.616C339.283 276.043 338.275 276.256 337.11 276.256Z" fill="white"/>
<path d="M163.943 23V5.54545H167.633V12.7472H175.125V5.54545H178.806V23H175.125V15.7898H167.633V23H163.943ZM181.184 8.58807V5.54545H195.52V8.58807H190.176V23H186.528V8.58807H181.184ZM197.88 5.54545H202.431L207.238 17.2727H207.443L212.25 5.54545H216.801V23H213.221V11.6392H213.076L208.559 22.9148H206.122L201.605 11.5966H201.46V23H197.88V5.54545ZM219.841 23V5.54545H223.532V19.9574H231.015V23H219.841ZM245.908 9.90909V12.6364H238.025V9.90909H245.908ZM239.814 6.77273H243.445V18.9773C243.445 19.3125 243.496 19.5739 243.598 19.7614C243.701 19.9432 243.843 20.071 244.025 20.1449C244.212 20.2187 244.428 20.2557 244.672 20.2557C244.843 20.2557 245.013 20.2415 245.184 20.2131C245.354 20.179 245.485 20.1534 245.576 20.1364L246.147 22.8381C245.965 22.8949 245.709 22.9602 245.38 23.0341C245.05 23.1136 244.65 23.1619 244.178 23.179C243.303 23.2131 242.536 23.0966 241.877 22.8295C241.223 22.5625 240.715 22.1477 240.351 21.5852C239.988 21.0227 239.809 20.3125 239.814 19.4545V6.77273ZM254.098 23.2557C252.752 23.2557 251.593 22.983 250.621 22.4375C249.655 21.8864 248.911 21.108 248.388 20.1023C247.865 19.0909 247.604 17.8949 247.604 16.5142C247.604 15.1676 247.865 13.9858 248.388 12.9688C248.911 11.9517 249.647 11.1591 250.596 10.5909C251.55 10.0227 252.669 9.73864 253.953 9.73864C254.817 9.73864 255.621 9.87784 256.365 10.1562C257.115 10.429 257.769 10.8409 258.326 11.392C258.888 11.9432 259.326 12.6364 259.638 13.4716C259.951 14.3011 260.107 15.2727 260.107 16.3864V17.3835H249.053V15.1335H256.689C256.689 14.6108 256.576 14.1477 256.348 13.7443C256.121 13.3409 255.806 13.0256 255.402 12.7983C255.005 12.5653 254.542 12.4489 254.013 12.4489C253.462 12.4489 252.973 12.5767 252.547 12.8324C252.127 13.0824 251.797 13.4205 251.559 13.8466C251.32 14.267 251.198 14.7358 251.192 15.2528V17.392C251.192 18.0398 251.311 18.5994 251.55 19.071C251.794 19.5426 252.138 19.9062 252.581 20.1619C253.025 20.4176 253.55 20.5455 254.158 20.5455C254.561 20.5455 254.931 20.4886 255.266 20.375C255.601 20.2614 255.888 20.0909 256.127 19.8636C256.365 19.6364 256.547 19.358 256.672 19.0284L260.03 19.25C259.86 20.0568 259.51 20.7614 258.982 21.3636C258.459 21.9602 257.783 22.4261 256.953 22.7614C256.13 23.0909 255.178 23.2557 254.098 23.2557ZM262.476 23V9.90909H265.936V12.2188H266.09C266.363 11.4517 266.817 10.8466 267.453 10.4034C268.09 9.96023 268.851 9.73864 269.738 9.73864C270.635 9.73864 271.4 9.96307 272.03 10.4119C272.661 10.8551 273.081 11.4574 273.292 12.2188H273.428C273.695 11.4688 274.178 10.8693 274.877 10.4205C275.581 9.96591 276.414 9.73864 277.374 9.73864C278.596 9.73864 279.587 10.1278 280.348 10.9062C281.115 11.679 281.499 12.7756 281.499 14.196V23H277.877V14.9119C277.877 14.1847 277.684 13.6392 277.297 13.2756C276.911 12.9119 276.428 12.7301 275.848 12.7301C275.189 12.7301 274.675 12.9403 274.306 13.3608C273.936 13.7756 273.752 14.3239 273.752 15.0057V23H270.232V14.8352C270.232 14.1932 270.047 13.6818 269.678 13.3011C269.314 12.9205 268.834 12.7301 268.238 12.7301C267.834 12.7301 267.471 12.8324 267.147 13.0369C266.828 13.2358 266.576 13.517 266.388 13.8807C266.201 14.2386 266.107 14.6591 266.107 15.142V23H262.476ZM284.367 27.9091V9.90909H287.946V12.108H288.108C288.267 11.7557 288.498 11.3977 288.799 11.0341C289.105 10.6648 289.503 10.358 289.992 10.1136C290.486 9.86364 291.1 9.73864 291.833 9.73864C292.787 9.73864 293.668 9.98864 294.475 10.4886C295.282 10.983 295.926 11.7301 296.409 12.7301C296.892 13.7244 297.134 14.9716 297.134 16.4716C297.134 17.9318 296.898 19.1648 296.426 20.1705C295.961 21.1705 295.324 21.929 294.517 22.446C293.716 22.9574 292.819 23.2131 291.824 23.2131C291.12 23.2131 290.52 23.0966 290.026 22.8636C289.537 22.6307 289.137 22.3381 288.824 21.9858C288.512 21.6278 288.273 21.267 288.108 20.9034H287.998V27.9091H284.367ZM287.921 16.4545C287.921 17.233 288.029 17.9119 288.245 18.4915C288.461 19.071 288.773 19.5227 289.182 19.8466C289.591 20.1648 290.088 20.3239 290.674 20.3239C291.265 20.3239 291.765 20.1619 292.174 19.8381C292.583 19.5085 292.892 19.054 293.103 18.4744C293.319 17.8892 293.426 17.2159 293.426 16.4545C293.426 15.6989 293.321 15.0341 293.111 14.4602C292.901 13.8864 292.591 13.4375 292.182 13.1136C291.773 12.7898 291.27 12.6278 290.674 12.6278C290.083 12.6278 289.583 12.7841 289.174 13.0966C288.77 13.4091 288.461 13.8523 288.245 14.4261C288.029 15 287.921 15.6761 287.921 16.4545ZM303.185 5.54545V23H299.554V5.54545H303.185ZM309.826 23.2472C308.991 23.2472 308.247 23.1023 307.593 22.8125C306.94 22.517 306.423 22.0824 306.042 21.5085C305.667 20.929 305.48 20.2074 305.48 19.3438C305.48 18.6165 305.613 18.0057 305.88 17.5114C306.147 17.017 306.511 16.6193 306.971 16.3182C307.431 16.017 307.954 15.7898 308.539 15.6364C309.13 15.483 309.75 15.375 310.397 15.3125C311.159 15.233 311.772 15.1591 312.238 15.0909C312.704 15.017 313.042 14.9091 313.252 14.767C313.463 14.625 313.568 14.4148 313.568 14.1364V14.0852C313.568 13.5455 313.397 13.1278 313.056 12.8324C312.721 12.5369 312.244 12.3892 311.625 12.3892C310.971 12.3892 310.451 12.5341 310.065 12.8239C309.679 13.108 309.423 13.4659 309.298 13.8977L305.94 13.625C306.11 12.8295 306.446 12.142 306.946 11.5625C307.446 10.9773 308.091 10.5284 308.88 10.2159C309.676 9.89773 310.596 9.73864 311.642 9.73864C312.369 9.73864 313.065 9.82386 313.73 9.99432C314.4 10.1648 314.994 10.429 315.511 10.7869C316.034 11.1449 316.446 11.6051 316.747 12.1676C317.048 12.7244 317.199 13.392 317.199 14.1705V23H313.755V21.1847H313.653C313.443 21.5938 313.162 21.9545 312.809 22.267C312.457 22.5739 312.034 22.8153 311.539 22.9915C311.045 23.1619 310.474 23.2472 309.826 23.2472ZM310.866 20.7415C311.4 20.7415 311.872 20.6364 312.281 20.4261C312.69 20.2102 313.011 19.9205 313.244 19.5568C313.477 19.1932 313.593 18.7812 313.593 18.321V16.9318C313.48 17.0057 313.324 17.0739 313.125 17.1364C312.931 17.1932 312.713 17.2472 312.468 17.2983C312.224 17.3437 311.98 17.3864 311.735 17.4261C311.491 17.4602 311.27 17.4915 311.071 17.5199C310.645 17.5824 310.272 17.6818 309.954 17.8182C309.636 17.9545 309.389 18.1392 309.213 18.3722C309.037 18.5994 308.949 18.8835 308.949 19.2244C308.949 19.7188 309.127 20.0966 309.485 20.358C309.849 20.6136 310.309 20.7415 310.866 20.7415ZM326.978 9.90909V12.6364H319.095V9.90909H326.978ZM320.885 6.77273H324.515V18.9773C324.515 19.3125 324.566 19.5739 324.669 19.7614C324.771 19.9432 324.913 20.071 325.095 20.1449C325.282 20.2187 325.498 20.2557 325.743 20.2557C325.913 20.2557 326.083 20.2415 326.254 20.2131C326.424 20.179 326.555 20.1534 326.646 20.1364L327.217 22.8381C327.035 22.8949 326.779 22.9602 326.45 23.0341C326.12 23.1136 325.72 23.1619 325.248 23.179C324.373 23.2131 323.606 23.0966 322.947 22.8295C322.294 22.5625 321.785 22.1477 321.422 21.5852C321.058 21.0227 320.879 20.3125 320.885 19.4545V6.77273ZM335.169 23.2557C333.822 23.2557 332.663 22.983 331.691 22.4375C330.725 21.8864 329.981 21.108 329.458 20.1023C328.936 19.0909 328.674 17.8949 328.674 16.5142C328.674 15.1676 328.936 13.9858 329.458 12.9688C329.981 11.9517 330.717 11.1591 331.666 10.5909C332.62 10.0227 333.74 9.73864 335.024 9.73864C335.887 9.73864 336.691 9.87784 337.436 10.1562C338.186 10.429 338.839 10.8409 339.396 11.392C339.958 11.9432 340.396 12.6364 340.708 13.4716C341.021 14.3011 341.177 15.2727 341.177 16.3864V17.3835H330.123V15.1335H337.76C337.76 14.6108 337.646 14.1477 337.419 13.7443C337.191 13.3409 336.876 13.0256 336.473 12.7983C336.075 12.5653 335.612 12.4489 335.083 12.4489C334.532 12.4489 334.044 12.5767 333.618 12.8324C333.197 13.0824 332.868 13.4205 332.629 13.8466C332.39 14.267 332.268 14.7358 332.262 15.2528V17.392C332.262 18.0398 332.382 18.5994 332.62 19.071C332.865 19.5426 333.208 19.9062 333.652 20.1619C334.095 20.4176 334.62 20.5455 335.228 20.5455C335.632 20.5455 336.001 20.4886 336.336 20.375C336.672 20.2614 336.958 20.0909 337.197 19.8636C337.436 19.6364 337.618 19.358 337.743 19.0284L341.1 19.25C340.93 20.0568 340.581 20.7614 340.052 21.3636C339.529 21.9602 338.853 22.4261 338.024 22.7614C337.2 23.0909 336.248 23.2557 335.169 23.2557ZM354.439 13.642L351.115 13.8466C351.058 13.5625 350.936 13.3068 350.748 13.0795C350.561 12.8466 350.314 12.6619 350.007 12.5256C349.706 12.3835 349.345 12.3125 348.924 12.3125C348.362 12.3125 347.887 12.4318 347.501 12.6705C347.115 12.9034 346.922 13.2159 346.922 13.608C346.922 13.9205 347.047 14.1847 347.297 14.4006C347.547 14.6165 347.975 14.7898 348.583 14.9205L350.953 15.3977C352.225 15.6591 353.174 16.0795 353.799 16.6591C354.424 17.2386 354.737 18 354.737 18.9432C354.737 19.8011 354.484 20.554 353.978 21.2017C353.478 21.8494 352.791 22.3551 351.916 22.7188C351.047 23.0767 350.044 23.2557 348.907 23.2557C347.174 23.2557 345.794 22.8949 344.765 22.1733C343.743 21.446 343.143 20.4574 342.967 19.2074L346.538 19.0199C346.646 19.5483 346.907 19.9517 347.322 20.2301C347.737 20.5028 348.268 20.6392 348.916 20.6392C349.552 20.6392 350.064 20.517 350.45 20.2727C350.842 20.0227 351.041 19.7017 351.047 19.3097C351.041 18.9801 350.902 18.7102 350.629 18.5C350.356 18.2841 349.936 18.1193 349.368 18.0057L347.1 17.554C345.822 17.2983 344.87 16.8551 344.245 16.2244C343.626 15.5937 343.316 14.7898 343.316 13.8125C343.316 12.9716 343.544 12.2472 343.998 11.6392C344.458 11.0312 345.103 10.5625 345.933 10.233C346.768 9.90341 347.745 9.73864 348.865 9.73864C350.518 9.73864 351.819 10.0881 352.768 10.7869C353.723 11.4858 354.279 12.4375 354.439 13.642Z" fill="white"/>
<path d="M259.707 214.293C259.317 213.902 258.683 213.902 258.293 214.293L251.929 220.657C251.538 221.047 251.538 221.681 251.929 222.071C252.319 222.462 252.953 222.462 253.343 222.071L259 216.414L264.657 222.071C265.047 222.462 265.681 222.462 266.071 222.071C266.462 221.681 266.462 221.047 266.071 220.657L259.707 214.293ZM260 242L260 239.75L258 239.75L258 242L260 242ZM260 235.25L260 230.75L258 230.75L258 235.25L260 235.25ZM260 226.25L260 221.75L258 221.75L258 226.25L260 226.25ZM260 217.25L260 215L258 215L258 217.25L260 217.25ZM259.707 214.293C259.317 213.902 258.683 213.902 258.293 214.293L251.929 220.657C251.538 221.047 251.538 221.681 251.929 222.071C252.319 222.462 252.953 222.462 253.343 222.071L259 216.414L264.657 222.071C265.047 222.462 265.681 222.462 266.071 222.071C266.462 221.681 266.462 221.047 266.071 220.657L259.707 214.293ZM260 242L260 239.75L258 239.75L258 242L260 242ZM260 235.25L260 230.75L258 230.75L258 235.25L260 235.25ZM260 226.25L260 221.75L258 221.75L258 226.25L260 226.25ZM260 217.25L260 215L258 215L258 217.25L260 217.25Z" fill="white"/>
<path d="M258.293 70.7071C258.683 71.0976 259.317 71.0976 259.707 70.7071L266.071 64.3431C266.462 63.9526 266.462 63.3195 266.071 62.9289C265.681 62.5384 265.047 62.5384 264.657 62.9289L259 68.5858L253.343 62.9289C252.953 62.5384 252.319 62.5384 251.929 62.9289C251.538 63.3195 251.538 63.9526 251.929 64.3431L258.293 70.7071ZM258 43L258 45.25L260 45.25L260 43L258 43ZM258 49.75L258 54.25L260 54.25L260 49.75L258 49.75ZM258 58.75L258 63.25L260 63.25L260 58.75L258 58.75ZM258 67.75L258 70L260 70L260 67.75L258 67.75ZM258.293 70.7071C258.683 71.0976 259.317 71.0976 259.707 70.7071L266.071 64.3431C266.462 63.9526 266.462 63.3195 266.071 62.9289C265.681 62.5384 265.047 62.5384 264.657 62.9289L259 68.5858L253.343 62.9289C252.953 62.5384 252.319 62.5384 251.929 62.9289C251.538 63.3195 251.538 63.9526 251.929 64.3431L258.293 70.7071ZM258 43L258 45.25L260 45.25L260 43L258 43ZM258 49.75L258 54.25L260 54.25L260 49.75L258 49.75ZM258 58.75L258 63.25L260 63.25L260 58.75L258 58.75ZM258 67.75L258 70L260 70L260 67.75L258 67.75Z" fill="white"/>
<path d="M360.339 148V136.364H362.8V141.165H367.794V136.364H370.249V148H367.794V143.193H362.8V148H360.339ZM371.834 138.392V136.364H381.391V138.392H377.828V148H375.396V138.392H371.834ZM382.964 136.364H385.999L389.203 144.182H389.339L392.544 136.364H395.578V148H393.192V140.426H393.095L390.084 147.943H388.459L385.447 140.398H385.351V148H382.964V136.364ZM397.605 148V136.364H400.065V145.972H405.054V148H397.605Z" fill="white"/>
</svg>
