<svg width="637" height="319" viewBox="0 0 637 319" fill="none" xmlns="http://www.w3.org/2000/svg">
<rect x="459.5" y="3.5" width="177" height="244" stroke="#D9D9D9"/>
<path d="M530.054 40.6562H526.321C526.253 40.1733 526.114 39.7443 525.904 39.3693C525.694 38.9886 525.424 38.6648 525.094 38.3977C524.765 38.1307 524.384 37.9261 523.952 37.7841C523.526 37.642 523.063 37.571 522.563 37.571C521.659 37.571 520.873 37.7955 520.202 38.2443C519.532 38.6875 519.012 39.3352 518.642 40.1875C518.273 41.0341 518.088 42.0625 518.088 43.2727C518.088 44.517 518.273 45.5625 518.642 46.4091C519.017 47.2557 519.54 47.8949 520.211 48.3267C520.881 48.7585 521.657 48.9744 522.537 48.9744C523.032 48.9744 523.489 48.9091 523.909 48.7784C524.336 48.6477 524.713 48.4574 525.043 48.2074C525.373 47.9517 525.645 47.642 525.861 47.2784C526.083 46.9148 526.236 46.5 526.321 46.0341L530.054 46.0511C529.958 46.8523 529.716 47.625 529.33 48.3693C528.949 49.108 528.435 49.7699 527.787 50.3551C527.145 50.9347 526.378 51.3949 525.486 51.7358C524.6 52.071 523.597 52.2386 522.478 52.2386C520.921 52.2386 519.529 51.8864 518.301 51.1818C517.08 50.4773 516.114 49.4574 515.404 48.1222C514.699 46.7869 514.347 45.1705 514.347 43.2727C514.347 41.3693 514.705 39.75 515.421 38.4148C516.137 37.0795 517.108 36.0625 518.336 35.3636C519.563 34.6591 520.944 34.3068 522.478 34.3068C523.489 34.3068 524.426 34.4489 525.29 34.733C526.159 35.017 526.929 35.4318 527.6 35.9773C528.27 36.517 528.816 37.179 529.236 37.9631C529.662 38.7472 529.935 39.6449 530.054 40.6562ZM536.263 34.5455V52H532.632V34.5455H536.263ZM539.172 52V38.9091H542.802V52H539.172ZM540.995 37.2216C540.456 37.2216 539.993 37.0426 539.606 36.6847C539.225 36.321 539.035 35.8864 539.035 35.3807C539.035 34.8807 539.225 34.4517 539.606 34.0938C539.993 33.7301 540.456 33.5483 540.995 33.5483C541.535 33.5483 541.995 33.7301 542.376 34.0938C542.762 34.4517 542.956 34.8807 542.956 35.3807C542.956 35.8864 542.762 36.321 542.376 36.6847C541.995 37.0426 541.535 37.2216 540.995 37.2216ZM551.676 52.2557C550.33 52.2557 549.171 51.983 548.199 51.4375C547.233 50.8864 546.489 50.108 545.966 49.1023C545.444 48.0909 545.182 46.8949 545.182 45.5142C545.182 44.1676 545.444 42.9858 545.966 41.9688C546.489 40.9517 547.225 40.1591 548.174 39.5909C549.128 39.0227 550.248 38.7386 551.532 38.7386C552.395 38.7386 553.199 38.8778 553.944 39.1562C554.694 39.429 555.347 39.8409 555.904 40.392C556.466 40.9432 556.904 41.6364 557.216 42.4716C557.529 43.3011 557.685 44.2727 557.685 45.3864V46.3835H546.631V44.1335H554.267C554.267 43.6108 554.154 43.1477 553.926 42.7443C553.699 42.3409 553.384 42.0256 552.98 41.7983C552.583 41.5653 552.12 41.4489 551.591 41.4489C551.04 41.4489 550.551 41.5767 550.125 41.8324C549.705 42.0824 549.375 42.4205 549.137 42.8466C548.898 43.267 548.776 43.7358 548.77 44.2528V46.392C548.77 47.0398 548.89 47.5994 549.128 48.071C549.373 48.5426 549.716 48.9062 550.159 49.1619C550.603 49.4176 551.128 49.5455 551.736 49.5455C552.14 49.5455 552.509 49.4886 552.844 49.375C553.179 49.2614 553.466 49.0909 553.705 48.8636C553.944 48.6364 554.125 48.358 554.25 48.0284L557.608 48.25C557.438 49.0568 557.088 49.7614 556.56 50.3636C556.037 50.9602 555.361 51.4261 554.532 51.7614C553.708 52.0909 552.756 52.2557 551.676 52.2557ZM563.685 44.4318V52H560.054V38.9091H563.515V41.2188H563.668C563.958 40.4574 564.444 39.8551 565.125 39.4119C565.807 38.9631 566.634 38.7386 567.605 38.7386C568.515 38.7386 569.307 38.9375 569.983 39.3352C570.659 39.733 571.185 40.3011 571.56 41.0398C571.935 41.7727 572.123 42.6477 572.123 43.6648V52H568.492V44.3125C568.498 43.5114 568.293 42.8864 567.878 42.4375C567.463 41.983 566.892 41.7557 566.165 41.7557C565.676 41.7557 565.245 41.8608 564.87 42.071C564.5 42.2812 564.211 42.5881 564 42.9915C563.796 43.3892 563.691 43.8693 563.685 44.4318ZM581.947 38.9091V41.6364H574.064V38.9091H581.947ZM575.853 35.7727H579.484V47.9773C579.484 48.3125 579.535 48.5739 579.637 48.7614C579.74 48.9432 579.882 49.071 580.064 49.1449C580.251 49.2187 580.467 49.2557 580.711 49.2557C580.882 49.2557 581.052 49.2415 581.223 49.2131C581.393 49.179 581.524 49.1534 581.615 49.1364L582.186 51.8381C582.004 51.8949 581.748 51.9602 581.419 52.0341C581.089 52.1136 580.689 52.1619 580.217 52.179C579.342 52.2131 578.575 52.0966 577.916 51.8295C577.262 51.5625 576.754 51.1477 576.39 50.5852C576.027 50.0227 575.848 49.3125 575.853 48.4545V35.7727Z" fill="#D9D9D9"/>
<rect y="68" width="144" height="114" fill="#D9D9D9"/>
<path d="M62.7045 134H56.517V116.545H62.7557C64.5114 116.545 66.0227 116.895 67.2898 117.594C68.5568 118.287 69.5313 119.284 70.2131 120.585C70.9006 121.886 71.2443 123.443 71.2443 125.256C71.2443 127.074 70.9006 128.636 70.2131 129.943C69.5313 131.25 68.5511 132.253 67.2727 132.952C66 133.651 64.4773 134 62.7045 134ZM60.2074 130.838H62.5511C63.642 130.838 64.5597 130.645 65.304 130.259C66.054 129.866 66.6165 129.261 66.9915 128.443C67.3722 127.619 67.5625 126.557 67.5625 125.256C67.5625 123.966 67.3722 122.912 66.9915 122.094C66.6165 121.276 66.0568 120.673 65.3125 120.287C64.5682 119.901 63.6506 119.707 62.5597 119.707H60.2074V130.838ZM73.978 134V116.545H80.9666C82.2507 116.545 83.3217 116.736 84.1797 117.116C85.0376 117.497 85.6825 118.026 86.1143 118.702C86.5462 119.372 86.7621 120.145 86.7621 121.02C86.7621 121.702 86.6257 122.301 86.353 122.818C86.0803 123.33 85.7053 123.75 85.228 124.08C84.7564 124.403 84.2166 124.634 83.6087 124.77V124.94C84.2734 124.969 84.8956 125.156 85.4751 125.503C86.0604 125.849 86.5348 126.335 86.8984 126.96C87.2621 127.58 87.4439 128.318 87.4439 129.176C87.4439 130.102 87.2138 130.929 86.7536 131.656C86.299 132.378 85.6257 132.949 84.7337 133.369C83.8416 133.79 82.7422 134 81.4354 134H73.978ZM77.6683 130.983H80.6768C81.7053 130.983 82.4553 130.787 82.9268 130.395C83.3984 129.997 83.6342 129.469 83.6342 128.81C83.6342 128.327 83.5178 127.901 83.2848 127.531C83.0518 127.162 82.7195 126.872 82.2876 126.662C81.8615 126.452 81.353 126.347 80.7621 126.347H77.6683V130.983ZM77.6683 123.849H80.4041C80.9098 123.849 81.3587 123.761 81.7507 123.585C82.1484 123.403 82.4609 123.148 82.6882 122.818C82.9212 122.489 83.0376 122.094 83.0376 121.634C83.0376 121.003 82.8132 120.494 82.3643 120.108C81.9212 119.722 81.2905 119.528 80.4723 119.528H77.6683V123.849Z" fill="black"/>
<rect x="476" y="68" width="144" height="114" fill="#D9D9D9"/>
<path d="M535.384 121.565C535.316 120.878 535.023 120.344 534.506 119.963C533.989 119.582 533.288 119.392 532.401 119.392C531.799 119.392 531.29 119.477 530.876 119.648C530.461 119.812 530.143 120.043 529.921 120.338C529.705 120.634 529.597 120.969 529.597 121.344C529.586 121.656 529.651 121.929 529.793 122.162C529.941 122.395 530.143 122.597 530.398 122.767C530.654 122.932 530.95 123.077 531.285 123.202C531.62 123.321 531.978 123.423 532.359 123.509L533.927 123.884C534.688 124.054 535.387 124.281 536.023 124.565C536.66 124.849 537.211 125.199 537.677 125.614C538.143 126.028 538.504 126.517 538.759 127.08C539.021 127.642 539.154 128.287 539.16 129.014C539.154 130.082 538.881 131.009 538.342 131.793C537.808 132.571 537.035 133.176 536.023 133.608C535.018 134.034 533.805 134.247 532.384 134.247C530.975 134.247 529.748 134.031 528.702 133.599C527.663 133.168 526.85 132.528 526.265 131.682C525.685 130.83 525.381 129.776 525.353 128.52H528.924C528.964 129.105 529.131 129.594 529.427 129.986C529.728 130.372 530.129 130.665 530.629 130.864C531.134 131.057 531.705 131.153 532.342 131.153C532.967 131.153 533.509 131.062 533.969 130.881C534.435 130.699 534.796 130.446 535.052 130.122C535.308 129.798 535.435 129.426 535.435 129.006C535.435 128.614 535.319 128.284 535.086 128.017C534.859 127.75 534.523 127.523 534.08 127.335C533.643 127.148 533.106 126.977 532.469 126.824L530.569 126.347C529.097 125.989 527.935 125.429 527.083 124.668C526.231 123.906 525.808 122.881 525.813 121.591C525.808 120.534 526.089 119.611 526.657 118.821C527.231 118.031 528.018 117.415 529.018 116.972C530.018 116.528 531.154 116.307 532.427 116.307C533.722 116.307 534.853 116.528 535.819 116.972C536.79 117.415 537.546 118.031 538.086 118.821C538.626 119.611 538.904 120.526 538.921 121.565H535.384ZM541.642 134V116.545H548.528C549.852 116.545 550.98 116.798 551.912 117.304C552.844 117.804 553.554 118.5 554.043 119.392C554.537 120.278 554.784 121.301 554.784 122.46C554.784 123.619 554.534 124.642 554.034 125.528C553.534 126.415 552.81 127.105 551.861 127.599C550.918 128.094 549.776 128.341 548.435 128.341H544.045V125.384H547.838C548.548 125.384 549.134 125.261 549.594 125.017C550.06 124.767 550.406 124.423 550.634 123.986C550.866 123.543 550.983 123.034 550.983 122.46C550.983 121.881 550.866 121.375 550.634 120.943C550.406 120.506 550.06 120.168 549.594 119.929C549.128 119.685 548.537 119.562 547.821 119.562H545.332V134H541.642ZM558.174 134H554.219L560.245 116.545H565.001L571.018 134H567.063L562.691 120.534H562.555L558.174 134ZM557.927 127.139H567.268V130.02H557.927V127.139Z" fill="black"/>
<rect x="195" y="68" width="144" height="114" fill="#D9D9D9"/>
<path d="M215.029 120.565C214.961 119.878 214.668 119.344 214.151 118.963C213.634 118.582 212.932 118.392 212.046 118.392C211.444 118.392 210.935 118.477 210.52 118.648C210.105 118.812 209.787 119.043 209.566 119.338C209.35 119.634 209.242 119.969 209.242 120.344C209.23 120.656 209.296 120.929 209.438 121.162C209.586 121.395 209.787 121.597 210.043 121.767C210.299 121.932 210.594 122.077 210.929 122.202C211.265 122.321 211.623 122.423 212.003 122.509L213.571 122.884C214.333 123.054 215.032 123.281 215.668 123.565C216.304 123.849 216.855 124.199 217.321 124.614C217.787 125.028 218.148 125.517 218.404 126.08C218.665 126.642 218.799 127.287 218.804 128.014C218.799 129.082 218.526 130.009 217.986 130.793C217.452 131.571 216.679 132.176 215.668 132.608C214.662 133.034 213.449 133.247 212.029 133.247C210.62 133.247 209.392 133.031 208.347 132.599C207.307 132.168 206.495 131.528 205.909 130.682C205.33 129.83 205.026 128.776 204.998 127.52H208.569C208.608 128.105 208.776 128.594 209.071 128.986C209.373 129.372 209.773 129.665 210.273 129.864C210.779 130.057 211.35 130.153 211.986 130.153C212.611 130.153 213.154 130.062 213.614 129.881C214.08 129.699 214.441 129.446 214.696 129.122C214.952 128.798 215.08 128.426 215.08 128.006C215.08 127.614 214.963 127.284 214.73 127.017C214.503 126.75 214.168 126.523 213.725 126.335C213.287 126.148 212.75 125.977 212.114 125.824L210.213 125.347C208.742 124.989 207.58 124.429 206.728 123.668C205.875 122.906 205.452 121.881 205.458 120.591C205.452 119.534 205.733 118.611 206.301 117.821C206.875 117.031 207.662 116.415 208.662 115.972C209.662 115.528 210.799 115.307 212.071 115.307C213.367 115.307 214.498 115.528 215.463 115.972C216.435 116.415 217.191 117.031 217.73 117.821C218.27 118.611 218.549 119.526 218.566 120.565H215.029ZM227.184 133.256C225.838 133.256 224.679 132.983 223.707 132.438C222.741 131.886 221.997 131.108 221.474 130.102C220.951 129.091 220.69 127.895 220.69 126.514C220.69 125.168 220.951 123.986 221.474 122.969C221.997 121.952 222.733 121.159 223.681 120.591C224.636 120.023 225.755 119.739 227.039 119.739C227.903 119.739 228.707 119.878 229.451 120.156C230.201 120.429 230.855 120.841 231.412 121.392C231.974 121.943 232.412 122.636 232.724 123.472C233.037 124.301 233.193 125.273 233.193 126.386V127.384H222.139V125.134H229.775C229.775 124.611 229.662 124.148 229.434 123.744C229.207 123.341 228.892 123.026 228.488 122.798C228.091 122.565 227.627 122.449 227.099 122.449C226.548 122.449 226.059 122.577 225.633 122.832C225.213 123.082 224.883 123.42 224.645 123.847C224.406 124.267 224.284 124.736 224.278 125.253V127.392C224.278 128.04 224.397 128.599 224.636 129.071C224.88 129.543 225.224 129.906 225.667 130.162C226.11 130.418 226.636 130.545 227.244 130.545C227.647 130.545 228.017 130.489 228.352 130.375C228.687 130.261 228.974 130.091 229.213 129.864C229.451 129.636 229.633 129.358 229.758 129.028L233.116 129.25C232.946 130.057 232.596 130.761 232.068 131.364C231.545 131.96 230.869 132.426 230.039 132.761C229.216 133.091 228.264 133.256 227.184 133.256ZM235.562 133V119.909H239.082V122.193H239.218C239.457 121.381 239.858 120.767 240.42 120.352C240.983 119.932 241.63 119.722 242.363 119.722C242.545 119.722 242.741 119.733 242.951 119.756C243.162 119.778 243.346 119.81 243.505 119.849V123.071C243.335 123.02 243.099 122.974 242.798 122.935C242.497 122.895 242.221 122.875 241.971 122.875C241.437 122.875 240.96 122.991 240.539 123.224C240.125 123.452 239.795 123.77 239.551 124.179C239.312 124.588 239.193 125.06 239.193 125.594V133H235.562ZM257.985 119.909L253.409 133H249.318L244.741 119.909H248.576L251.295 129.276H251.431L254.142 119.909H257.985ZM265.387 133.256C264.041 133.256 262.882 132.983 261.91 132.438C260.944 131.886 260.2 131.108 259.677 130.102C259.154 129.091 258.893 127.895 258.893 126.514C258.893 125.168 259.154 123.986 259.677 122.969C260.2 121.952 260.936 121.159 261.885 120.591C262.839 120.023 263.958 119.739 265.243 119.739C266.106 119.739 266.91 119.878 267.654 120.156C268.404 120.429 269.058 120.841 269.615 121.392C270.177 121.943 270.615 122.636 270.927 123.472C271.24 124.301 271.396 125.273 271.396 126.386V127.384H260.342V125.134H267.978C267.978 124.611 267.865 124.148 267.637 123.744C267.41 123.341 267.095 123.026 266.691 122.798C266.294 122.565 265.831 122.449 265.302 122.449C264.751 122.449 264.262 122.577 263.836 122.832C263.416 123.082 263.086 123.42 262.848 123.847C262.609 124.267 262.487 124.736 262.481 125.253V127.392C262.481 128.04 262.6 128.599 262.839 129.071C263.083 129.543 263.427 129.906 263.87 130.162C264.314 130.418 264.839 130.545 265.447 130.545C265.85 130.545 266.22 130.489 266.555 130.375C266.89 130.261 267.177 130.091 267.416 129.864C267.654 129.636 267.836 129.358 267.961 129.028L271.319 129.25C271.149 130.057 270.799 130.761 270.271 131.364C269.748 131.96 269.072 132.426 268.243 132.761C267.419 133.091 266.467 133.256 265.387 133.256ZM273.765 133V119.909H277.285V122.193H277.422C277.66 121.381 278.061 120.767 278.623 120.352C279.186 119.932 279.833 119.722 280.566 119.722C280.748 119.722 280.944 119.733 281.154 119.756C281.365 119.778 281.549 119.81 281.708 119.849V123.071C281.538 123.02 281.302 122.974 281.001 122.935C280.7 122.895 280.424 122.875 280.174 122.875C279.64 122.875 279.163 122.991 278.743 123.224C278.328 123.452 277.998 123.77 277.754 124.179C277.515 124.588 277.396 125.06 277.396 125.594V133H273.765ZM290.438 114.727L284.813 135.625H281.685L287.31 114.727H290.438ZM295.264 133H291.309L297.335 115.545H302.091L308.108 133H304.153L299.781 119.534H299.645L295.264 133ZM295.017 126.139H304.358V129.02H295.017V126.139ZM310.208 133V115.545H317.095C318.419 115.545 319.547 115.798 320.478 116.304C321.41 116.804 322.12 117.5 322.609 118.392C323.103 119.278 323.35 120.301 323.35 121.46C323.35 122.619 323.1 123.642 322.6 124.528C322.1 125.415 321.376 126.105 320.427 126.599C319.484 127.094 318.342 127.341 317.001 127.341H312.612V124.384H316.404C317.115 124.384 317.7 124.261 318.16 124.017C318.626 123.767 318.973 123.423 319.2 122.986C319.433 122.543 319.549 122.034 319.549 121.46C319.549 120.881 319.433 120.375 319.2 119.943C318.973 119.506 318.626 119.168 318.16 118.929C317.694 118.685 317.103 118.562 316.387 118.562H313.899V133H310.208ZM329.438 115.545V133H325.748V115.545H329.438Z" fill="black"/>
<path d="M187.707 108.707C188.098 108.317 188.098 107.683 187.707 107.293L181.343 100.929C180.953 100.538 180.319 100.538 179.929 100.929C179.538 101.319 179.538 101.953 179.929 102.343L185.586 108L179.929 113.657C179.538 114.047 179.538 114.681 179.929 115.071C180.319 115.462 180.953 115.462 181.343 115.071L187.707 108.707ZM160 109H187V107H160V109Z" fill="white"/>
<path d="M159.293 141.293C158.902 141.683 158.902 142.317 159.293 142.707L165.657 149.071C166.047 149.462 166.681 149.462 167.071 149.071C167.462 148.681 167.462 148.047 167.071 147.657L161.414 142L167.071 136.343C167.462 135.953 167.462 135.319 167.071 134.929C166.681 134.538 166.047 134.538 165.657 134.929L159.293 141.293ZM187 141L160 141L160 143L187 143L187 141Z" fill="white"/>
<path d="M448.707 108.707C449.098 108.317 449.098 107.683 448.707 107.293L442.343 100.929C441.953 100.538 441.319 100.538 440.929 100.929C440.538 101.319 440.538 101.953 440.929 102.343L446.586 108L440.929 113.657C440.538 114.047 440.538 114.681 440.929 115.071C441.319 115.462 441.953 115.462 442.343 115.071L448.707 108.707ZM348 109H448V107H348V109Z" fill="white"/>
<path d="M347.293 141.293C346.902 141.683 346.902 142.317 347.293 142.707L353.657 149.071C354.047 149.462 354.681 149.462 355.071 149.071C355.462 148.681 355.462 148.047 355.071 147.657L349.414 142L355.071 136.343C355.462 135.953 355.462 135.319 355.071 134.929C354.681 134.538 354.047 134.538 353.657 134.929L347.293 141.293ZM448 141L348 141L348 143L448 143L448 141Z" fill="white"/>
<path d="M204.685 23V5.54545H211.674C212.958 5.54545 214.029 5.7358 214.887 6.11648C215.745 6.49716 216.39 7.02557 216.821 7.7017C217.253 8.37216 217.469 9.14489 217.469 10.0199C217.469 10.7017 217.333 11.3011 217.06 11.8182C216.787 12.3295 216.412 12.75 215.935 13.0795C215.463 13.4034 214.924 13.6335 214.316 13.7699V13.9403C214.98 13.9687 215.603 14.1562 216.182 14.5028C216.767 14.8494 217.242 15.3352 217.605 15.9602C217.969 16.5795 218.151 17.3182 218.151 18.1761C218.151 19.1023 217.921 19.929 217.461 20.6562C217.006 21.3778 216.333 21.9489 215.441 22.3693C214.549 22.7898 213.449 23 212.142 23H204.685ZM208.375 19.983H211.384C212.412 19.983 213.162 19.7869 213.634 19.3949C214.105 18.9972 214.341 18.4687 214.341 17.8097C214.341 17.3267 214.225 16.9006 213.992 16.5312C213.759 16.1619 213.426 15.8722 212.995 15.6619C212.569 15.4517 212.06 15.3466 211.469 15.3466H208.375V19.983ZM208.375 12.8494H211.111C211.617 12.8494 212.066 12.7614 212.458 12.5852C212.855 12.4034 213.168 12.1477 213.395 11.8182C213.628 11.4886 213.745 11.0938 213.745 10.6335C213.745 10.0028 213.52 9.49432 213.071 9.10795C212.628 8.72159 211.998 8.52841 211.179 8.52841H208.375V12.8494ZM228.879 17.4261V9.90909H232.51V23H229.024V20.6222H228.887C228.592 21.3892 228.1 22.0057 227.413 22.4716C226.731 22.9375 225.899 23.1705 224.916 23.1705C224.041 23.1705 223.271 22.9716 222.606 22.5739C221.941 22.1761 221.422 21.6108 221.047 20.8778C220.677 20.1449 220.49 19.267 220.484 18.2443V9.90909H224.115V17.5966C224.12 18.3693 224.328 18.9801 224.737 19.429C225.146 19.8778 225.694 20.1023 226.382 20.1023C226.819 20.1023 227.228 20.0028 227.609 19.804C227.99 19.5994 228.297 19.2983 228.529 18.9006C228.768 18.5028 228.885 18.0114 228.879 17.4261ZM246.306 13.642L242.982 13.8466C242.925 13.5625 242.803 13.3068 242.615 13.0795C242.428 12.8466 242.181 12.6619 241.874 12.5256C241.573 12.3835 241.212 12.3125 240.792 12.3125C240.229 12.3125 239.755 12.4318 239.368 12.6705C238.982 12.9034 238.789 13.2159 238.789 13.608C238.789 13.9205 238.914 14.1847 239.164 14.4006C239.414 14.6165 239.843 14.7898 240.451 14.9205L242.82 15.3977C244.093 15.6591 245.042 16.0795 245.667 16.6591C246.292 17.2386 246.604 18 246.604 18.9432C246.604 19.8011 246.351 20.554 245.846 21.2017C245.346 21.8494 244.658 22.3551 243.783 22.7188C242.914 23.0767 241.911 23.2557 240.775 23.2557C239.042 23.2557 237.661 22.8949 236.632 22.1733C235.61 21.446 235.01 20.4574 234.834 19.2074L238.405 19.0199C238.513 19.5483 238.775 19.9517 239.189 20.2301C239.604 20.5028 240.135 20.6392 240.783 20.6392C241.419 20.6392 241.931 20.517 242.317 20.2727C242.709 20.0227 242.908 19.7017 242.914 19.3097C242.908 18.9801 242.769 18.7102 242.496 18.5C242.223 18.2841 241.803 18.1193 241.235 18.0057L238.968 17.554C237.689 17.2983 236.738 16.8551 236.113 16.2244C235.493 15.5937 235.184 14.7898 235.184 13.8125C235.184 12.9716 235.411 12.2472 235.865 11.6392C236.326 11.0312 236.971 10.5625 237.8 10.233C238.635 9.90341 239.613 9.73864 240.732 9.73864C242.385 9.73864 243.686 10.0881 244.635 10.7869C245.59 11.4858 246.147 12.4375 246.306 13.642ZM248.89 23V9.90909H252.521V23H248.89ZM250.714 8.22159C250.174 8.22159 249.711 8.04261 249.325 7.68466C248.944 7.32102 248.754 6.88636 248.754 6.38068C248.754 5.88068 248.944 5.4517 249.325 5.09375C249.711 4.73011 250.174 4.54829 250.714 4.54829C251.254 4.54829 251.714 4.73011 252.095 5.09375C252.481 5.4517 252.674 5.88068 252.674 6.38068C252.674 6.88636 252.481 7.32102 252.095 7.68466C251.714 8.04261 251.254 8.22159 250.714 8.22159ZM259.06 15.4318V23H255.429V9.90909H258.89V12.2188H259.043C259.333 11.4574 259.819 10.8551 260.5 10.4119C261.182 9.96307 262.009 9.73864 262.98 9.73864C263.89 9.73864 264.682 9.9375 265.358 10.3352C266.034 10.733 266.56 11.3011 266.935 12.0398C267.31 12.7727 267.498 13.6477 267.498 14.6648V23H263.867V15.3125C263.873 14.5114 263.668 13.8864 263.253 13.4375C262.838 12.983 262.267 12.7557 261.54 12.7557C261.051 12.7557 260.62 12.8608 260.245 13.071C259.875 13.2812 259.586 13.5881 259.375 13.9915C259.171 14.3892 259.066 14.8693 259.06 15.4318ZM276.325 23.2557C274.978 23.2557 273.819 22.983 272.848 22.4375C271.882 21.8864 271.137 21.108 270.615 20.1023C270.092 19.0909 269.831 17.8949 269.831 16.5142C269.831 15.1676 270.092 13.9858 270.615 12.9688C271.137 11.9517 271.873 11.1591 272.822 10.5909C273.777 10.0227 274.896 9.73864 276.18 9.73864C277.044 9.73864 277.848 9.87784 278.592 10.1562C279.342 10.429 279.995 10.8409 280.552 11.392C281.115 11.9432 281.552 12.6364 281.865 13.4716C282.177 14.3011 282.333 15.2727 282.333 16.3864V17.3835H271.279V15.1335H278.916C278.916 14.6108 278.802 14.1477 278.575 13.7443C278.348 13.3409 278.032 13.0256 277.629 12.7983C277.231 12.5653 276.768 12.4489 276.24 12.4489C275.689 12.4489 275.2 12.5767 274.774 12.8324C274.353 13.0824 274.024 13.4205 273.785 13.8466C273.547 14.267 273.424 14.7358 273.419 15.2528V17.392C273.419 18.0398 273.538 18.5994 273.777 19.071C274.021 19.5426 274.365 19.9062 274.808 20.1619C275.251 20.4176 275.777 20.5455 276.385 20.5455C276.788 20.5455 277.157 20.4886 277.493 20.375C277.828 20.2614 278.115 20.0909 278.353 19.8636C278.592 19.6364 278.774 19.358 278.899 19.0284L282.257 19.25C282.086 20.0568 281.737 20.7614 281.208 21.3636C280.686 21.9602 280.01 22.4261 279.18 22.7614C278.356 23.0909 277.404 23.2557 276.325 23.2557ZM295.595 13.642L292.271 13.8466C292.214 13.5625 292.092 13.3068 291.904 13.0795C291.717 12.8466 291.47 12.6619 291.163 12.5256C290.862 12.3835 290.501 12.3125 290.081 12.3125C289.518 12.3125 289.044 12.4318 288.657 12.6705C288.271 12.9034 288.078 13.2159 288.078 13.608C288.078 13.9205 288.203 14.1847 288.453 14.4006C288.703 14.6165 289.132 14.7898 289.74 14.9205L292.109 15.3977C293.382 15.6591 294.331 16.0795 294.956 16.6591C295.581 17.2386 295.893 18 295.893 18.9432C295.893 19.8011 295.64 20.554 295.135 21.2017C294.635 21.8494 293.947 22.3551 293.072 22.7188C292.203 23.0767 291.2 23.2557 290.064 23.2557C288.331 23.2557 286.95 22.8949 285.922 22.1733C284.899 21.446 284.299 20.4574 284.123 19.2074L287.694 19.0199C287.802 19.5483 288.064 19.9517 288.478 20.2301C288.893 20.5028 289.424 20.6392 290.072 20.6392C290.708 20.6392 291.22 20.517 291.606 20.2727C291.998 20.0227 292.197 19.7017 292.203 19.3097C292.197 18.9801 292.058 18.7102 291.785 18.5C291.512 18.2841 291.092 18.1193 290.524 18.0057L288.257 17.554C286.978 17.2983 286.027 16.8551 285.402 16.2244C284.782 15.5937 284.473 14.7898 284.473 13.8125C284.473 12.9716 284.7 12.2472 285.154 11.6392C285.615 11.0312 286.26 10.5625 287.089 10.233C287.924 9.90341 288.902 9.73864 290.021 9.73864C291.674 9.73864 292.975 10.0881 293.924 10.7869C294.879 11.4858 295.436 12.4375 295.595 13.642ZM309.071 13.642L305.748 13.8466C305.691 13.5625 305.569 13.3068 305.381 13.0795C305.194 12.8466 304.946 12.6619 304.64 12.5256C304.338 12.3835 303.978 12.3125 303.557 12.3125C302.995 12.3125 302.52 12.4318 302.134 12.6705C301.748 12.9034 301.554 13.2159 301.554 13.608C301.554 13.9205 301.679 14.1847 301.929 14.4006C302.179 14.6165 302.608 14.7898 303.216 14.9205L305.586 15.3977C306.858 15.6591 307.807 16.0795 308.432 16.6591C309.057 17.2386 309.37 18 309.37 18.9432C309.37 19.8011 309.117 20.554 308.611 21.2017C308.111 21.8494 307.424 22.3551 306.549 22.7188C305.679 23.0767 304.676 23.2557 303.54 23.2557C301.807 23.2557 300.426 22.8949 299.398 22.1733C298.375 21.446 297.776 20.4574 297.6 19.2074L301.171 19.0199C301.279 19.5483 301.54 19.9517 301.955 20.2301C302.37 20.5028 302.901 20.6392 303.549 20.6392C304.185 20.6392 304.696 20.517 305.083 20.2727C305.475 20.0227 305.674 19.7017 305.679 19.3097C305.674 18.9801 305.534 18.7102 305.262 18.5C304.989 18.2841 304.569 18.1193 304 18.0057L301.733 17.554C300.455 17.2983 299.503 16.8551 298.878 16.2244C298.259 15.5937 297.949 14.7898 297.949 13.8125C297.949 12.9716 298.176 12.2472 298.631 11.6392C299.091 11.0312 299.736 10.5625 300.566 10.233C301.401 9.90341 302.378 9.73864 303.498 9.73864C305.151 9.73864 306.452 10.0881 307.401 10.7869C308.355 11.4858 308.912 12.4375 309.071 13.642ZM320.841 5.54545V23H317.211V5.54545H320.841ZM329.664 23.2557C328.341 23.2557 327.196 22.9744 326.23 22.4119C325.27 21.8437 324.528 21.054 324.005 20.0426C323.483 19.0256 323.221 17.8466 323.221 16.5057C323.221 15.1534 323.483 13.9716 324.005 12.9602C324.528 11.9432 325.27 11.1534 326.23 10.5909C327.196 10.0227 328.341 9.73864 329.664 9.73864C330.988 9.73864 332.13 10.0227 333.091 10.5909C334.056 11.1534 334.801 11.9432 335.324 12.9602C335.846 13.9716 336.108 15.1534 336.108 16.5057C336.108 17.8466 335.846 19.0256 335.324 20.0426C334.801 21.054 334.056 21.8437 333.091 22.4119C332.13 22.9744 330.988 23.2557 329.664 23.2557ZM329.681 20.4432C330.284 20.4432 330.787 20.2727 331.19 19.9318C331.593 19.5852 331.897 19.1136 332.102 18.517C332.312 17.9205 332.417 17.2415 332.417 16.4801C332.417 15.7188 332.312 15.0398 332.102 14.4432C331.897 13.8466 331.593 13.375 331.19 13.0284C330.787 12.6818 330.284 12.5085 329.681 12.5085C329.074 12.5085 328.562 12.6818 328.147 13.0284C327.738 13.375 327.429 13.8466 327.218 14.4432C327.014 15.0398 326.912 15.7188 326.912 16.4801C326.912 17.2415 327.014 17.9205 327.218 18.517C327.429 19.1136 327.738 19.5852 328.147 19.9318C328.562 20.2727 329.074 20.4432 329.681 20.4432ZM344.366 28.1818C343.19 28.1818 342.181 28.0199 341.341 27.696C340.505 27.3778 339.841 26.9432 339.346 26.392C338.852 25.8409 338.531 25.2216 338.383 24.5341L341.741 24.0824C341.843 24.3438 342.005 24.5881 342.227 24.8153C342.449 25.0426 342.741 25.2244 343.105 25.3608C343.474 25.5028 343.923 25.5739 344.451 25.5739C345.241 25.5739 345.892 25.3807 346.403 24.9943C346.92 24.6136 347.179 23.9744 347.179 23.0767V20.6818H347.025C346.866 21.0455 346.627 21.3892 346.309 21.7131C345.991 22.0369 345.582 22.3011 345.082 22.5057C344.582 22.7102 343.985 22.8125 343.292 22.8125C342.309 22.8125 341.414 22.5852 340.608 22.1307C339.806 21.6705 339.167 20.9687 338.69 20.0256C338.218 19.0767 337.983 17.8778 337.983 16.429C337.983 14.946 338.224 13.7074 338.707 12.7131C339.19 11.7187 339.832 10.9744 340.633 10.4801C341.44 9.9858 342.324 9.73864 343.284 9.73864C344.017 9.73864 344.63 9.86364 345.125 10.1136C345.619 10.358 346.017 10.6648 346.318 11.0341C346.625 11.3977 346.86 11.7557 347.025 12.108H347.162V9.90909H350.767V23.1278C350.767 24.2415 350.494 25.1733 349.949 25.9233C349.403 26.6733 348.647 27.2358 347.681 27.6108C346.721 27.9915 345.616 28.1818 344.366 28.1818ZM344.443 20.0852C345.028 20.0852 345.522 19.9403 345.926 19.6506C346.335 19.3551 346.647 18.9347 346.863 18.3892C347.085 17.8381 347.196 17.179 347.196 16.4119C347.196 15.6449 347.088 14.9801 346.872 14.4176C346.656 13.8494 346.343 13.4091 345.934 13.0966C345.525 12.7841 345.028 12.6278 344.443 12.6278C343.846 12.6278 343.343 12.7898 342.934 13.1136C342.525 13.4318 342.216 13.875 342.005 14.4432C341.795 15.0114 341.69 15.6676 341.69 16.4119C341.69 17.1676 341.795 17.821 342.005 18.3722C342.221 18.9176 342.531 19.3409 342.934 19.642C343.343 19.9375 343.846 20.0852 344.443 20.0852ZM353.656 23V9.90909H357.287V23H353.656ZM355.48 8.22159C354.94 8.22159 354.477 8.04261 354.091 7.68466C353.71 7.32102 353.52 6.88636 353.52 6.38068C353.52 5.88068 353.71 5.4517 354.091 5.09375C354.477 4.73011 354.94 4.54829 355.48 4.54829C356.02 4.54829 356.48 4.73011 356.86 5.09375C357.247 5.4517 357.44 5.88068 357.44 6.38068C357.44 6.88636 357.247 7.32102 356.86 7.68466C356.48 8.04261 356.02 8.22159 355.48 8.22159ZM366.11 23.2557C364.769 23.2557 363.615 22.9716 362.65 22.4034C361.689 21.8295 360.951 21.0341 360.434 20.017C359.922 19 359.667 17.8295 359.667 16.5057C359.667 15.1648 359.925 13.9886 360.442 12.9773C360.965 11.9602 361.706 11.1676 362.667 10.5994C363.627 10.0256 364.769 9.73864 366.093 9.73864C367.235 9.73864 368.235 9.94602 369.093 10.3608C369.951 10.7756 370.63 11.358 371.13 12.108C371.63 12.858 371.905 13.7386 371.956 14.75H368.53C368.434 14.0966 368.178 13.571 367.763 13.1733C367.354 12.7699 366.817 12.5682 366.152 12.5682C365.59 12.5682 365.098 12.7216 364.678 13.0284C364.263 13.3295 363.939 13.7699 363.706 14.3494C363.473 14.929 363.357 15.6307 363.357 16.4545C363.357 17.2898 363.471 18 363.698 18.5852C363.931 19.1705 364.257 19.6165 364.678 19.9233C365.098 20.2301 365.59 20.3835 366.152 20.3835C366.567 20.3835 366.939 20.2983 367.269 20.1278C367.604 19.9574 367.88 19.7102 368.096 19.3864C368.317 19.0568 368.462 18.6619 368.53 18.2017H371.956C371.9 19.2017 371.627 20.0824 371.138 20.8438C370.655 21.5994 369.988 22.1903 369.135 22.6165C368.283 23.0426 367.275 23.2557 366.11 23.2557Z" fill="white"/>
<path d="M471.681 273.545H475.371V284.881C475.371 286.153 475.067 287.267 474.46 288.222C473.857 289.176 473.013 289.92 471.928 290.455C470.843 290.983 469.579 291.247 468.136 291.247C466.687 291.247 465.42 290.983 464.335 290.455C463.249 289.92 462.406 289.176 461.803 288.222C461.201 287.267 460.9 286.153 460.9 284.881V273.545H464.59V284.565C464.59 285.23 464.735 285.821 465.025 286.338C465.32 286.855 465.735 287.261 466.269 287.557C466.803 287.852 467.425 288 468.136 288C468.852 288 469.474 287.852 470.002 287.557C470.536 287.261 470.948 286.855 471.238 286.338C471.533 285.821 471.681 285.23 471.681 284.565V273.545ZM482.098 273.545V291H478.408V273.545H482.098ZM496.536 291.256C495.195 291.256 494.041 290.972 493.075 290.403C492.115 289.83 491.376 289.034 490.859 288.017C490.348 287 490.092 285.83 490.092 284.506C490.092 283.165 490.351 281.989 490.868 280.977C491.391 279.96 492.132 279.168 493.092 278.599C494.053 278.026 495.195 277.739 496.518 277.739C497.661 277.739 498.661 277.946 499.518 278.361C500.376 278.776 501.055 279.358 501.555 280.108C502.055 280.858 502.331 281.739 502.382 282.75H498.956C498.859 282.097 498.604 281.571 498.189 281.173C497.78 280.77 497.243 280.568 496.578 280.568C496.016 280.568 495.524 280.722 495.104 281.028C494.689 281.33 494.365 281.77 494.132 282.349C493.899 282.929 493.783 283.631 493.783 284.455C493.783 285.29 493.896 286 494.124 286.585C494.357 287.17 494.683 287.616 495.104 287.923C495.524 288.23 496.016 288.384 496.578 288.384C496.993 288.384 497.365 288.298 497.695 288.128C498.03 287.957 498.305 287.71 498.521 287.386C498.743 287.057 498.888 286.662 498.956 286.202H502.382C502.325 287.202 502.053 288.082 501.564 288.844C501.081 289.599 500.413 290.19 499.561 290.616C498.709 291.043 497.7 291.256 496.536 291.256ZM510.621 291.256C509.298 291.256 508.153 290.974 507.187 290.412C506.227 289.844 505.485 289.054 504.962 288.043C504.44 287.026 504.178 285.847 504.178 284.506C504.178 283.153 504.44 281.972 504.962 280.96C505.485 279.943 506.227 279.153 507.187 278.591C508.153 278.023 509.298 277.739 510.621 277.739C511.945 277.739 513.087 278.023 514.048 278.591C515.013 279.153 515.758 279.943 516.281 280.96C516.803 281.972 517.065 283.153 517.065 284.506C517.065 285.847 516.803 287.026 516.281 288.043C515.758 289.054 515.013 289.844 514.048 290.412C513.087 290.974 511.945 291.256 510.621 291.256ZM510.638 288.443C511.241 288.443 511.744 288.273 512.147 287.932C512.55 287.585 512.854 287.114 513.059 286.517C513.269 285.92 513.374 285.241 513.374 284.48C513.374 283.719 513.269 283.04 513.059 282.443C512.854 281.847 512.55 281.375 512.147 281.028C511.744 280.682 511.241 280.509 510.638 280.509C510.031 280.509 509.519 280.682 509.104 281.028C508.695 281.375 508.386 281.847 508.175 282.443C507.971 283.04 507.869 283.719 507.869 284.48C507.869 285.241 507.971 285.92 508.175 286.517C508.386 287.114 508.695 287.585 509.104 287.932C509.519 288.273 510.031 288.443 510.638 288.443ZM519.425 291V277.909H522.886V280.219H523.039C523.312 279.452 523.766 278.847 524.403 278.403C525.039 277.96 525.8 277.739 526.687 277.739C527.585 277.739 528.349 277.963 528.979 278.412C529.61 278.855 530.031 279.457 530.241 280.219H530.377C530.644 279.469 531.127 278.869 531.826 278.42C532.531 277.966 533.363 277.739 534.323 277.739C535.545 277.739 536.536 278.128 537.298 278.906C538.065 279.679 538.448 280.776 538.448 282.196V291H534.826V282.912C534.826 282.185 534.633 281.639 534.246 281.276C533.86 280.912 533.377 280.73 532.798 280.73C532.138 280.73 531.624 280.94 531.255 281.361C530.886 281.776 530.701 282.324 530.701 283.006V291H527.181V282.835C527.181 282.193 526.996 281.682 526.627 281.301C526.263 280.92 525.783 280.73 525.187 280.73C524.783 280.73 524.42 280.832 524.096 281.037C523.778 281.236 523.525 281.517 523.337 281.881C523.15 282.239 523.056 282.659 523.056 283.142V291H519.425ZM541.316 295.909V277.909H544.896V280.108H545.058C545.217 279.756 545.447 279.398 545.748 279.034C546.055 278.665 546.452 278.358 546.941 278.114C547.435 277.864 548.049 277.739 548.782 277.739C549.737 277.739 550.617 277.989 551.424 278.489C552.231 278.983 552.876 279.73 553.359 280.73C553.842 281.724 554.083 282.972 554.083 284.472C554.083 285.932 553.847 287.165 553.376 288.17C552.91 289.17 552.273 289.929 551.467 290.446C550.665 290.957 549.768 291.213 548.773 291.213C548.069 291.213 547.469 291.097 546.975 290.864C546.487 290.631 546.086 290.338 545.773 289.986C545.461 289.628 545.222 289.267 545.058 288.903H544.947V295.909H541.316ZM544.87 284.455C544.87 285.233 544.978 285.912 545.194 286.491C545.41 287.071 545.722 287.523 546.131 287.847C546.54 288.165 547.038 288.324 547.623 288.324C548.214 288.324 548.714 288.162 549.123 287.838C549.532 287.509 549.842 287.054 550.052 286.474C550.268 285.889 550.376 285.216 550.376 284.455C550.376 283.699 550.271 283.034 550.06 282.46C549.85 281.886 549.54 281.437 549.131 281.114C548.722 280.79 548.219 280.628 547.623 280.628C547.032 280.628 546.532 280.784 546.123 281.097C545.719 281.409 545.41 281.852 545.194 282.426C544.978 283 544.87 283.676 544.87 284.455ZM562.418 291.256C561.094 291.256 559.95 290.974 558.984 290.412C558.023 289.844 557.282 289.054 556.759 288.043C556.237 287.026 555.975 285.847 555.975 284.506C555.975 283.153 556.237 281.972 556.759 280.96C557.282 279.943 558.023 279.153 558.984 278.591C559.95 278.023 561.094 277.739 562.418 277.739C563.742 277.739 564.884 278.023 565.844 278.591C566.81 279.153 567.555 279.943 568.077 280.96C568.6 281.972 568.862 283.153 568.862 284.506C568.862 285.847 568.6 287.026 568.077 288.043C567.555 289.054 566.81 289.844 565.844 290.412C564.884 290.974 563.742 291.256 562.418 291.256ZM562.435 288.443C563.038 288.443 563.54 288.273 563.944 287.932C564.347 287.585 564.651 287.114 564.856 286.517C565.066 285.92 565.171 285.241 565.171 284.48C565.171 283.719 565.066 283.04 564.856 282.443C564.651 281.847 564.347 281.375 563.944 281.028C563.54 280.682 563.038 280.509 562.435 280.509C561.827 280.509 561.316 280.682 560.901 281.028C560.492 281.375 560.183 281.847 559.972 282.443C559.768 283.04 559.665 283.719 559.665 284.48C559.665 285.241 559.768 285.92 559.972 286.517C560.183 287.114 560.492 287.585 560.901 287.932C561.316 288.273 561.827 288.443 562.435 288.443ZM574.853 283.432V291H571.222V277.909H574.683V280.219H574.836C575.126 279.457 575.612 278.855 576.293 278.412C576.975 277.963 577.802 277.739 578.773 277.739C579.683 277.739 580.475 277.938 581.151 278.335C581.827 278.733 582.353 279.301 582.728 280.04C583.103 280.773 583.29 281.648 583.29 282.665V291H579.66V283.312C579.665 282.511 579.461 281.886 579.046 281.438C578.631 280.983 578.06 280.756 577.333 280.756C576.844 280.756 576.413 280.861 576.038 281.071C575.668 281.281 575.379 281.588 575.168 281.991C574.964 282.389 574.859 282.869 574.853 283.432ZM592.118 291.256C590.771 291.256 589.612 290.983 588.641 290.438C587.675 289.886 586.93 289.108 586.408 288.102C585.885 287.091 585.624 285.895 585.624 284.514C585.624 283.168 585.885 281.986 586.408 280.969C586.93 279.952 587.666 279.159 588.615 278.591C589.57 278.023 590.689 277.739 591.973 277.739C592.837 277.739 593.641 277.878 594.385 278.156C595.135 278.429 595.788 278.841 596.345 279.392C596.908 279.943 597.345 280.636 597.658 281.472C597.97 282.301 598.126 283.273 598.126 284.386V285.384H587.072V283.134H594.709C594.709 282.611 594.595 282.148 594.368 281.744C594.141 281.341 593.825 281.026 593.422 280.798C593.024 280.565 592.561 280.449 592.033 280.449C591.482 280.449 590.993 280.577 590.567 280.832C590.146 281.082 589.817 281.42 589.578 281.847C589.339 282.267 589.217 282.736 589.212 283.253V285.392C589.212 286.04 589.331 286.599 589.57 287.071C589.814 287.543 590.158 287.906 590.601 288.162C591.044 288.418 591.57 288.545 592.178 288.545C592.581 288.545 592.95 288.489 593.286 288.375C593.621 288.261 593.908 288.091 594.146 287.864C594.385 287.636 594.567 287.358 594.692 287.028L598.05 287.25C597.879 288.057 597.53 288.761 597.001 289.364C596.479 289.96 595.803 290.426 594.973 290.761C594.149 291.091 593.197 291.256 592.118 291.256ZM604.126 283.432V291H600.496V277.909H603.956V280.219H604.109C604.399 279.457 604.885 278.855 605.567 278.412C606.249 277.963 607.075 277.739 608.047 277.739C608.956 277.739 609.749 277.938 610.425 278.335C611.101 278.733 611.626 279.301 612.001 280.04C612.376 280.773 612.564 281.648 612.564 282.665V291H608.933V283.312C608.939 282.511 608.734 281.886 608.32 281.438C607.905 280.983 607.334 280.756 606.607 280.756C606.118 280.756 605.686 280.861 605.311 281.071C604.942 281.281 604.652 281.588 604.442 281.991C604.237 282.389 604.132 282.869 604.126 283.432ZM622.388 277.909V280.636H614.505V277.909H622.388ZM616.295 274.773H619.925V286.977C619.925 287.312 619.977 287.574 620.079 287.761C620.181 287.943 620.323 288.071 620.505 288.145C620.692 288.219 620.908 288.256 621.153 288.256C621.323 288.256 621.494 288.241 621.664 288.213C621.835 288.179 621.965 288.153 622.056 288.136L622.627 290.838C622.445 290.895 622.19 290.96 621.86 291.034C621.531 291.114 621.13 291.162 620.658 291.179C619.783 291.213 619.016 291.097 618.357 290.83C617.704 290.562 617.195 290.148 616.832 289.585C616.468 289.023 616.289 288.312 616.295 287.455V274.773ZM635.482 281.642L632.158 281.847C632.101 281.562 631.979 281.307 631.791 281.08C631.604 280.847 631.357 280.662 631.05 280.526C630.749 280.384 630.388 280.312 629.967 280.312C629.405 280.312 628.93 280.432 628.544 280.67C628.158 280.903 627.964 281.216 627.964 281.608C627.964 281.92 628.089 282.185 628.339 282.401C628.589 282.616 629.018 282.79 629.626 282.92L631.996 283.398C633.268 283.659 634.217 284.08 634.842 284.659C635.467 285.239 635.78 286 635.78 286.943C635.78 287.801 635.527 288.554 635.021 289.202C634.521 289.849 633.834 290.355 632.959 290.719C632.089 291.077 631.087 291.256 629.95 291.256C628.217 291.256 626.837 290.895 625.808 290.173C624.786 289.446 624.186 288.457 624.01 287.207L627.581 287.02C627.689 287.548 627.95 287.952 628.365 288.23C628.78 288.503 629.311 288.639 629.959 288.639C630.595 288.639 631.107 288.517 631.493 288.273C631.885 288.023 632.084 287.702 632.089 287.31C632.084 286.98 631.945 286.71 631.672 286.5C631.399 286.284 630.979 286.119 630.411 286.006L628.143 285.554C626.865 285.298 625.913 284.855 625.288 284.224C624.669 283.594 624.359 282.79 624.359 281.812C624.359 280.972 624.587 280.247 625.041 279.639C625.501 279.031 626.146 278.562 626.976 278.233C627.811 277.903 628.788 277.739 629.908 277.739C631.561 277.739 632.862 278.088 633.811 278.787C634.766 279.486 635.322 280.437 635.482 281.642Z" fill="white"/>
<path d="M266.293 61.7071C266.683 62.0976 267.317 62.0976 267.707 61.7071L274.071 55.3431C274.462 54.9526 274.462 54.3195 274.071 53.9289C273.681 53.5384 273.047 53.5384 272.657 53.9289L267 59.5858L261.343 53.9289C260.953 53.5384 260.319 53.5384 259.929 53.9289C259.538 54.3195 259.538 54.9526 259.929 55.3431L266.293 61.7071ZM266 35L266 37.1667L268 37.1667L268 35L266 35ZM266 41.5L266 45.8333L268 45.8333L268 41.5L266 41.5ZM266 50.1667L266 54.5L268 54.5L268 50.1667L266 50.1667ZM266 58.8333L266 61L268 61L268 58.8333L266 58.8333ZM266.293 61.7071C266.683 62.0976 267.317 62.0976 267.707 61.7071L274.071 55.3431C274.462 54.9526 274.462 54.3195 274.071 53.9289C273.681 53.5384 273.047 53.5384 272.657 53.9289L267 59.5858L261.343 53.9289C260.953 53.5384 260.319 53.5384 259.929 53.9289C259.538 54.3195 259.538 54.9526 259.929 55.3431L266.293 61.7071ZM266 35L266 37.1667L268 37.1667L268 35L266 35ZM266 41.5L266 45.8333L268 45.8333L268 41.5L266 41.5ZM266 50.1667L266 54.5L268 54.5L268 50.1667L266 50.1667ZM266 58.8333L266 61L268 61L268 58.8333L266 58.8333Z" fill="white"/>
<path d="M470.211 68.9776C470.75 68.8613 471.094 68.3293 470.978 67.7894L469.083 58.9912C468.966 58.4513 468.434 58.1079 467.894 58.2242C467.355 58.3405 467.011 58.8724 467.127 59.4123L468.812 67.233L460.991 68.9174C460.451 69.0337 460.108 69.5657 460.224 70.1056C460.34 70.6455 460.872 70.9889 461.412 70.8726L470.211 68.9776ZM390.458 17.8401L392.103 18.9026L393.188 17.2224L391.542 16.1599L390.458 17.8401ZM395.395 21.0276L398.687 23.1526L399.772 21.4724L396.48 19.3474L395.395 21.0276ZM401.978 25.2776L405.27 27.4026L406.355 25.7224L403.063 23.5974L401.978 25.2776ZM408.562 29.5276L411.853 31.6526L412.938 29.9724L409.647 27.8474L408.562 29.5276ZM415.145 33.7776L418.437 35.9026L419.522 34.2224L416.23 32.0974L415.145 33.7776ZM421.728 38.0276L425.02 40.1526L426.105 38.4724L422.813 36.3474L421.728 38.0276ZM428.312 42.2776L431.603 44.4026L432.688 42.7224L429.397 40.5974L428.312 42.2776ZM434.895 46.5276L438.187 48.6526L439.272 46.9724L435.98 44.8474L434.895 46.5276ZM441.478 50.7776L444.77 52.9026L445.855 51.2224L442.563 49.0974L441.478 50.7776ZM448.062 55.0276L451.353 57.1526L452.438 55.4724L449.147 53.3474L448.062 55.0276ZM454.645 59.2776L457.937 61.4026L459.022 59.7224L455.73 57.5974L454.645 59.2776ZM461.228 63.5276L464.52 65.6526L465.605 63.9724L462.313 61.8474L461.228 63.5276ZM467.812 67.7776L469.458 68.8401L470.542 67.1599L468.897 66.0974L467.812 67.7776ZM470.211 68.9776C470.75 68.8613 471.094 68.3293 470.978 67.7894L469.083 58.9912C468.966 58.4513 468.434 58.1079 467.894 58.2242C467.355 58.3405 467.011 58.8724 467.127 59.4123L468.812 67.233L460.991 68.9174C460.451 69.0337 460.108 69.5657 460.224 70.1056C460.34 70.6455 460.872 70.9889 461.412 70.8726L470.211 68.9776ZM390.458 17.8401L392.103 18.9026L393.188 17.2224L391.542 16.1599L390.458 17.8401ZM395.395 21.0276L398.687 23.1526L399.772 21.4724L396.48 19.3474L395.395 21.0276ZM401.978 25.2776L405.27 27.4026L406.355 25.7224L403.063 23.5974L401.978 25.2776ZM408.562 29.5276L411.853 31.6526L412.938 29.9724L409.647 27.8474L408.562 29.5276ZM415.145 33.7776L418.437 35.9026L419.522 34.2224L416.23 32.0974L415.145 33.7776ZM421.728 38.0276L425.02 40.1526L426.105 38.4724L422.813 36.3474L421.728 38.0276ZM428.312 42.2776L431.603 44.4026L432.688 42.7224L429.397 40.5974L428.312 42.2776ZM434.895 46.5276L438.187 48.6526L439.272 46.9724L435.98 44.8474L434.895 46.5276ZM441.478 50.7776L444.77 52.9026L445.855 51.2224L442.563 49.0974L441.478 50.7776ZM448.062 55.0276L451.353 57.1526L452.438 55.4724L449.147 53.3474L448.062 55.0276ZM454.645 59.2776L457.937 61.4026L459.022 59.7224L455.73 57.5974L454.645 59.2776ZM461.228 63.5276L464.52 65.6526L465.605 63.9724L462.313 61.8474L461.228 63.5276ZM467.812 67.7776L469.458 68.8401L470.542 67.1599L468.897 66.0974L467.812 67.7776Z" fill="white"/>
<path d="M548.707 193.293C548.317 192.902 547.683 192.902 547.293 193.293L540.929 199.657C540.538 200.047 540.538 200.681 540.929 201.071C541.319 201.462 541.953 201.462 542.343 201.071L548 195.414L553.657 201.071C554.047 201.462 554.681 201.462 555.071 201.071C555.462 200.681 555.462 200.047 555.071 199.657L548.707 193.293ZM549 265L549 263.028L547 263.028L547 265L549 265ZM549 259.083L549 255.139L547 255.139L547 259.083L549 259.083ZM549 251.194L549 247.25L547 247.25L547 251.194L549 251.194ZM549 243.306L549 239.361L547 239.361L547 243.306L549 243.306ZM549 235.417L549 231.472L547 231.472L547 235.417L549 235.417ZM549 227.528L549 223.583L547 223.583L547 227.528L549 227.528ZM549 219.639L549 215.694L547 215.694L547 219.639L549 219.639ZM549 211.75L549 207.806L547 207.806L547 211.75L549 211.75ZM549 203.861L549 199.917L547 199.917L547 203.861L549 203.861ZM549 195.972L549 194L547 194L547 195.972L549 195.972ZM548.707 193.293C548.317 192.902 547.683 192.902 547.293 193.293L540.929 199.657C540.538 200.047 540.538 200.681 540.929 201.071C541.319 201.462 541.953 201.462 542.343 201.071L548 195.414L553.657 201.071C554.047 201.462 554.681 201.462 555.071 201.071C555.462 200.681 555.462 200.047 555.071 199.657L548.707 193.293ZM549 265L549 263.028L547 263.028L547 265L549 265ZM549 259.083L549 255.139L547 255.139L547 259.083L549 259.083ZM549 251.194L549 247.25L547 247.25L547 251.194L549 251.194ZM549 243.306L549 239.361L547 239.361L547 243.306L549 243.306ZM549 235.417L549 231.472L547 231.472L547 235.417L549 235.417ZM549 227.528L549 223.583L547 223.583L547 227.528L549 227.528ZM549 219.639L549 215.694L547 215.694L547 219.639L549 219.639ZM549 211.75L549 207.806L547 207.806L547 211.75L549 211.75ZM549 203.861L549 199.917L547 199.917L547 203.861L549 203.861ZM549 195.972L549 194L547 194L547 195.972L549 195.972Z" fill="white"/>
<path d="M378.725 118.364H381.157V126.477C381.157 127.227 380.988 127.879 380.651 128.432C380.318 128.985 379.854 129.411 379.259 129.71C378.665 130.009 377.973 130.159 377.185 130.159C376.485 130.159 375.848 130.036 375.276 129.79C374.708 129.54 374.257 129.161 373.924 128.653C373.591 128.142 373.426 127.5 373.43 126.727H375.879C375.886 127.034 375.949 127.297 376.066 127.517C376.187 127.733 376.352 127.9 376.56 128.017C376.772 128.131 377.022 128.188 377.31 128.188C377.613 128.188 377.869 128.123 378.077 127.994C378.29 127.862 378.451 127.669 378.56 127.415C378.67 127.161 378.725 126.848 378.725 126.477V118.364ZM389.504 121.71C389.458 121.252 389.263 120.896 388.918 120.642C388.574 120.388 388.106 120.261 387.515 120.261C387.113 120.261 386.774 120.318 386.498 120.432C386.221 120.542 386.009 120.695 385.862 120.892C385.718 121.089 385.646 121.312 385.646 121.562C385.638 121.771 385.682 121.953 385.776 122.108C385.875 122.263 386.009 122.398 386.18 122.511C386.35 122.621 386.547 122.718 386.771 122.801C386.994 122.881 387.233 122.949 387.487 123.006L388.532 123.256C389.04 123.369 389.505 123.521 389.93 123.71C390.354 123.9 390.721 124.133 391.032 124.409C391.343 124.686 391.583 125.011 391.754 125.386C391.928 125.761 392.017 126.191 392.021 126.676C392.017 127.388 391.835 128.006 391.475 128.528C391.119 129.047 390.604 129.451 389.93 129.739C389.259 130.023 388.451 130.165 387.504 130.165C386.564 130.165 385.746 130.021 385.049 129.733C384.356 129.445 383.814 129.019 383.424 128.455C383.038 127.886 382.835 127.184 382.816 126.347H385.197C385.223 126.737 385.335 127.062 385.532 127.324C385.733 127.581 386 127.777 386.333 127.909C386.67 128.038 387.051 128.102 387.475 128.102C387.892 128.102 388.254 128.042 388.56 127.92C388.871 127.799 389.112 127.631 389.282 127.415C389.452 127.199 389.538 126.951 389.538 126.67C389.538 126.409 389.46 126.189 389.305 126.011C389.153 125.833 388.93 125.682 388.634 125.557C388.343 125.432 387.985 125.318 387.56 125.216L386.293 124.898C385.312 124.659 384.538 124.286 383.969 123.778C383.401 123.271 383.119 122.587 383.123 121.727C383.119 121.023 383.307 120.407 383.685 119.881C384.068 119.354 384.593 118.943 385.259 118.648C385.926 118.352 386.683 118.205 387.532 118.205C388.396 118.205 389.149 118.352 389.793 118.648C390.441 118.943 390.945 119.354 391.305 119.881C391.665 120.407 391.85 121.017 391.862 121.71H389.504ZM404.369 124.182C404.369 125.451 404.128 126.53 403.647 127.42C403.17 128.311 402.518 128.991 401.692 129.46C400.871 129.926 399.946 130.159 398.92 130.159C397.886 130.159 396.958 129.924 396.136 129.455C395.314 128.985 394.664 128.305 394.187 127.415C393.71 126.525 393.471 125.447 393.471 124.182C393.471 122.913 393.71 121.833 394.187 120.943C394.664 120.053 395.314 119.375 396.136 118.909C396.958 118.439 397.886 118.205 398.92 118.205C399.946 118.205 400.871 118.439 401.692 118.909C402.518 119.375 403.17 120.053 403.647 120.943C404.128 121.833 404.369 122.913 404.369 124.182ZM401.874 124.182C401.874 123.36 401.751 122.667 401.505 122.102C401.263 121.538 400.92 121.11 400.477 120.818C400.033 120.527 399.514 120.381 398.92 120.381C398.325 120.381 397.806 120.527 397.363 120.818C396.92 121.11 396.575 121.538 396.329 122.102C396.086 122.667 395.965 123.36 395.965 124.182C395.965 125.004 396.086 125.697 396.329 126.261C396.575 126.826 396.92 127.254 397.363 127.545C397.806 127.837 398.325 127.983 398.92 127.983C399.514 127.983 400.033 127.837 400.477 127.545C400.92 127.254 401.263 126.826 401.505 126.261C401.751 125.697 401.874 125.004 401.874 124.182ZM415.924 118.364V130H413.799L408.737 122.676H408.651V130H406.191V118.364H408.35L413.373 125.682H413.475V118.364H415.924Z" fill="white"/>
<path d="M504.093 307V305.977C504.093 305.667 504.148 305.337 504.258 304.989C504.371 304.636 504.534 304.297 504.746 303.972C504.962 303.642 505.222 303.356 505.525 303.114L506.252 303.705C506.013 304.045 505.805 304.402 505.627 304.773C505.453 305.14 505.366 305.534 505.366 305.955V307H504.093ZM507.002 307V305.977C507.002 305.667 507.057 305.337 507.167 304.989C507.281 304.636 507.443 304.297 507.656 303.972C507.871 303.642 508.131 303.356 508.434 303.114L509.161 303.705C508.923 304.045 508.714 304.402 508.536 304.773C508.362 305.14 508.275 305.534 508.275 305.955V307H507.002ZM510.187 304.614V303.364H518.914V304.614H515.255V315H513.846V304.614H510.187ZM523.3 315.182C522.46 315.182 521.734 314.996 521.124 314.625C520.518 314.25 520.05 313.727 519.721 313.057C519.395 312.383 519.232 311.598 519.232 310.705C519.232 309.811 519.395 309.023 519.721 308.341C520.05 307.655 520.509 307.121 521.096 306.739C521.687 306.352 522.376 306.159 523.164 306.159C523.619 306.159 524.067 306.235 524.511 306.386C524.954 306.538 525.357 306.784 525.721 307.125C526.085 307.462 526.374 307.909 526.59 308.466C526.806 309.023 526.914 309.708 526.914 310.523V311.091H520.187V309.932H525.55C525.55 309.439 525.452 309 525.255 308.614C525.062 308.227 524.785 307.922 524.425 307.699C524.069 307.475 523.649 307.364 523.164 307.364C522.63 307.364 522.168 307.496 521.778 307.761C521.391 308.023 521.094 308.364 520.886 308.784C520.677 309.205 520.573 309.655 520.573 310.136V310.909C520.573 311.568 520.687 312.127 520.914 312.585C521.145 313.04 521.465 313.386 521.874 313.625C522.283 313.86 522.759 313.977 523.3 313.977C523.653 313.977 523.971 313.928 524.255 313.83C524.543 313.727 524.791 313.576 524.999 313.375C525.208 313.17 525.369 312.917 525.482 312.614L526.778 312.977C526.641 313.417 526.412 313.803 526.09 314.136C525.768 314.466 525.371 314.723 524.897 314.909C524.424 315.091 523.891 315.182 523.3 315.182ZM528.954 315V306.273H530.249V307.636H530.363C530.545 307.17 530.838 306.809 531.244 306.551C531.649 306.29 532.136 306.159 532.704 306.159C533.28 306.159 533.759 306.29 534.141 306.551C534.528 306.809 534.829 307.17 535.045 307.636H535.136C535.359 307.186 535.694 306.828 536.141 306.562C536.588 306.294 537.124 306.159 537.749 306.159C538.53 306.159 539.168 306.403 539.664 306.892C540.16 307.377 540.408 308.133 540.408 309.159V315H539.067V309.159C539.067 308.515 538.891 308.055 538.539 307.778C538.187 307.502 537.772 307.364 537.295 307.364C536.681 307.364 536.206 307.549 535.869 307.92C535.531 308.288 535.363 308.754 535.363 309.318V315H533.999V309.023C533.999 308.527 533.838 308.127 533.516 307.824C533.194 307.517 532.78 307.364 532.272 307.364C531.924 307.364 531.598 307.456 531.295 307.642C530.996 307.828 530.753 308.085 530.567 308.415C530.386 308.741 530.295 309.117 530.295 309.545V315H528.954ZM542.86 318.273V306.273H544.156V307.659H544.315C544.413 307.508 544.549 307.314 544.724 307.08C544.902 306.841 545.156 306.629 545.485 306.443C545.818 306.254 546.269 306.159 546.837 306.159C547.572 306.159 548.22 306.343 548.781 306.71C549.341 307.078 549.779 307.598 550.093 308.273C550.407 308.947 550.565 309.742 550.565 310.659C550.565 311.583 550.407 312.384 550.093 313.062C549.779 313.737 549.343 314.259 548.786 314.631C548.229 314.998 547.587 315.182 546.86 315.182C546.299 315.182 545.851 315.089 545.513 314.903C545.176 314.714 544.917 314.5 544.735 314.261C544.553 314.019 544.413 313.818 544.315 313.659H544.201V318.273H542.86ZM544.178 310.636C544.178 311.295 544.275 311.877 544.468 312.381C544.661 312.881 544.943 313.273 545.315 313.557C545.686 313.837 546.14 313.977 546.678 313.977C547.239 313.977 547.707 313.83 548.082 313.534C548.46 313.235 548.745 312.833 548.934 312.33C549.127 311.822 549.224 311.258 549.224 310.636C549.224 310.023 549.129 309.47 548.94 308.977C548.754 308.481 548.472 308.089 548.093 307.801C547.718 307.509 547.246 307.364 546.678 307.364C546.133 307.364 545.674 307.502 545.303 307.778C544.932 308.051 544.652 308.434 544.462 308.926C544.273 309.415 544.178 309.985 544.178 310.636ZM553.951 303.364V315H552.61V303.364H553.951ZM558.975 315.205C558.422 315.205 557.92 315.1 557.469 314.892C557.019 314.68 556.661 314.375 556.396 313.977C556.13 313.576 555.998 313.091 555.998 312.523C555.998 312.023 556.096 311.617 556.293 311.307C556.49 310.992 556.754 310.746 557.083 310.568C557.413 310.39 557.776 310.258 558.174 310.17C558.576 310.08 558.979 310.008 559.384 309.955C559.915 309.886 560.344 309.835 560.674 309.801C561.007 309.763 561.25 309.701 561.401 309.614C561.557 309.527 561.634 309.375 561.634 309.159V309.114C561.634 308.553 561.481 308.117 561.174 307.807C560.871 307.496 560.411 307.341 559.793 307.341C559.153 307.341 558.651 307.481 558.288 307.761C557.924 308.042 557.668 308.341 557.521 308.659L556.248 308.205C556.475 307.674 556.778 307.261 557.157 306.966C557.54 306.667 557.956 306.458 558.407 306.341C558.862 306.22 559.308 306.159 559.748 306.159C560.028 306.159 560.35 306.193 560.714 306.261C561.081 306.326 561.435 306.46 561.776 306.665C562.121 306.869 562.407 307.178 562.634 307.591C562.862 308.004 562.975 308.557 562.975 309.25V315H561.634V313.818H561.566C561.475 314.008 561.324 314.21 561.112 314.426C560.899 314.642 560.617 314.826 560.265 314.977C559.913 315.129 559.483 315.205 558.975 315.205ZM559.18 314C559.71 314 560.157 313.896 560.521 313.688C560.888 313.479 561.165 313.21 561.35 312.881C561.54 312.551 561.634 312.205 561.634 311.841V310.614C561.577 310.682 561.452 310.744 561.259 310.801C561.07 310.854 560.85 310.902 560.6 310.943C560.354 310.981 560.113 311.015 559.879 311.045C559.647 311.072 559.46 311.095 559.316 311.114C558.968 311.159 558.642 311.233 558.339 311.335C558.04 311.434 557.797 311.583 557.612 311.784C557.43 311.981 557.339 312.25 557.339 312.591C557.339 313.057 557.511 313.409 557.856 313.648C558.204 313.883 558.646 314 559.18 314ZM569.218 306.273V307.409H564.695V306.273H569.218ZM566.013 304.182H567.354V312.5C567.354 312.879 567.409 313.163 567.519 313.352C567.633 313.538 567.777 313.663 567.951 313.727C568.129 313.788 568.317 313.818 568.513 313.818C568.661 313.818 568.782 313.811 568.877 313.795C568.972 313.777 569.048 313.761 569.104 313.75L569.377 314.955C569.286 314.989 569.159 315.023 568.996 315.057C568.834 315.095 568.627 315.114 568.377 315.114C567.998 315.114 567.627 315.032 567.263 314.869C566.904 314.706 566.604 314.458 566.366 314.125C566.131 313.792 566.013 313.371 566.013 312.864V304.182ZM574.8 315.182C573.96 315.182 573.234 314.996 572.624 314.625C572.018 314.25 571.55 313.727 571.221 313.057C570.895 312.383 570.732 311.598 570.732 310.705C570.732 309.811 570.895 309.023 571.221 308.341C571.55 307.655 572.009 307.121 572.596 306.739C573.187 306.352 573.876 306.159 574.664 306.159C575.119 306.159 575.567 306.235 576.011 306.386C576.454 306.538 576.857 306.784 577.221 307.125C577.585 307.462 577.874 307.909 578.09 308.466C578.306 309.023 578.414 309.708 578.414 310.523V311.091H571.687V309.932H577.05C577.05 309.439 576.952 309 576.755 308.614C576.562 308.227 576.285 307.922 575.925 307.699C575.569 307.475 575.149 307.364 574.664 307.364C574.13 307.364 573.668 307.496 573.278 307.761C572.891 308.023 572.594 308.364 572.386 308.784C572.177 309.205 572.073 309.655 572.073 310.136V310.909C572.073 311.568 572.187 312.127 572.414 312.585C572.645 313.04 572.965 313.386 573.374 313.625C573.783 313.86 574.259 313.977 574.8 313.977C575.153 313.977 575.471 313.928 575.755 313.83C576.043 313.727 576.291 313.576 576.499 313.375C576.708 313.17 576.869 312.917 576.982 312.614L578.278 312.977C578.141 313.417 577.912 313.803 577.59 314.136C577.268 314.466 576.871 314.723 576.397 314.909C575.924 315.091 575.391 315.182 574.8 315.182ZM586.636 308.227L585.431 308.568C585.355 308.367 585.244 308.172 585.096 307.983C584.952 307.79 584.755 307.631 584.505 307.506C584.255 307.381 583.935 307.318 583.545 307.318C583.011 307.318 582.566 307.441 582.21 307.688C581.857 307.93 581.681 308.239 581.681 308.614C581.681 308.947 581.802 309.21 582.045 309.403C582.287 309.597 582.666 309.758 583.181 309.886L584.477 310.205C585.257 310.394 585.838 310.684 586.221 311.074C586.603 311.46 586.795 311.958 586.795 312.568C586.795 313.068 586.651 313.515 586.363 313.909C586.079 314.303 585.681 314.614 585.17 314.841C584.658 315.068 584.064 315.182 583.386 315.182C582.496 315.182 581.759 314.989 581.175 314.602C580.592 314.216 580.223 313.652 580.067 312.909L581.34 312.591C581.461 313.061 581.691 313.413 582.028 313.648C582.369 313.883 582.814 314 583.363 314C583.988 314 584.484 313.867 584.852 313.602C585.223 313.333 585.408 313.011 585.408 312.636C585.408 312.333 585.302 312.08 585.09 311.875C584.878 311.667 584.552 311.511 584.113 311.409L582.658 311.068C581.859 310.879 581.272 310.585 580.897 310.188C580.526 309.786 580.34 309.284 580.34 308.682C580.34 308.189 580.478 307.754 580.755 307.375C581.035 306.996 581.416 306.699 581.897 306.483C582.382 306.267 582.931 306.159 583.545 306.159C584.408 306.159 585.086 306.348 585.579 306.727C586.075 307.106 586.427 307.606 586.636 308.227ZM589.995 303.364V304.386C589.995 304.697 589.938 305.028 589.825 305.381C589.715 305.729 589.552 306.068 589.336 306.398C589.124 306.723 588.866 307.008 588.563 307.25L587.836 306.659C588.075 306.318 588.281 305.964 588.455 305.597C588.633 305.225 588.722 304.83 588.722 304.409V303.364H589.995ZM592.904 303.364V304.386C592.904 304.697 592.847 305.028 592.734 305.381C592.624 305.729 592.461 306.068 592.245 306.398C592.033 306.723 591.775 307.008 591.472 307.25L590.745 306.659C590.984 306.318 591.19 305.964 591.364 305.597C591.542 305.225 591.631 304.83 591.631 304.409V303.364H592.904Z" fill="white"/>
</svg>
